<svg width="409" height="414" viewBox="0 0 409 414" fill="none" xmlns="http://www.w3.org/2000/svg">
<rect width="409" height="414" rx="20" fill="#F9F9F9"/>
<rect x="82" y="266" width="94" height="36" rx="6" fill="#397FFE"/>
<rect x="281" y="159" width="46" height="46" rx="23" fill="url(#paint0_linear_0_1)"/>
<rect x="281" y="312" width="46" height="46" rx="23" fill="url(#paint1_linear_0_1)"/>
<g filter="url(#filter0_d_0_1)">
<circle cx="55" cy="42" r="17" fill="white"/>
</g>
<g filter="url(#filter1_d_0_1)">
<circle cx="355" cy="42" r="17" fill="white"/>
</g>
<path d="M56.2432 97.3887C56.2432 97.0013 56.1064 96.7051 55.833 96.5C55.5596 96.2904 55.0674 96.0716 54.3564 95.8438C53.6455 95.6113 53.0827 95.3835 52.668 95.1602C51.5378 94.5495 50.9727 93.7269 50.9727 92.6924C50.9727 92.1546 51.123 91.6761 51.4238 91.2568C51.7292 90.833 52.1644 90.5026 52.7295 90.2656C53.2992 90.0286 53.9372 89.9102 54.6436 89.9102C55.3545 89.9102 55.988 90.04 56.5439 90.2998C57.0999 90.555 57.5306 90.9173 57.8359 91.3867C58.1458 91.8561 58.3008 92.3893 58.3008 92.9863H56.25C56.25 92.5306 56.1064 92.1774 55.8193 91.9268C55.5322 91.6715 55.1289 91.5439 54.6094 91.5439C54.1081 91.5439 53.7184 91.651 53.4404 91.8652C53.1624 92.0749 53.0234 92.3529 53.0234 92.6992C53.0234 93.0228 53.1852 93.2939 53.5088 93.5127C53.8369 93.7314 54.3177 93.9365 54.9512 94.1279C56.1178 94.4788 56.9678 94.9141 57.501 95.4336C58.0342 95.9531 58.3008 96.6003 58.3008 97.375C58.3008 98.2363 57.9749 98.9131 57.3232 99.4053C56.6715 99.8929 55.7943 100.137 54.6914 100.137C53.9258 100.137 53.2285 99.9977 52.5996 99.7197C51.9707 99.4372 51.4899 99.0521 51.1572 98.5645C50.8291 98.0768 50.665 97.5117 50.665 96.8691H52.7227C52.7227 97.9674 53.3789 98.5166 54.6914 98.5166C55.179 98.5166 55.5596 98.4186 55.833 98.2227C56.1064 98.0221 56.2432 97.7441 56.2432 97.3887Z" fill="black"/>
<path d="M101.937 90.0469L104.493 97.2656L107.036 90.0469H109.729V100H107.672V97.2793L107.877 92.583L105.19 100H103.782L101.103 92.5898L101.308 97.2793V100H99.2568V90.0469H101.937Z" fill="black"/>
<path d="M158.547 91.708H155.498V100H153.447V91.708H150.439V90.0469H158.547V91.708Z" fill="black"/>
<path d="M207.016 97.1289L208.355 90.0469H210.399L208.191 100H206.127L204.507 93.3418L202.887 100H200.822L198.614 90.0469H200.658L202.005 97.1152L203.646 90.0469H205.382L207.016 97.1289Z" fill="black"/>
<path d="M257.016 97.1289L258.355 90.0469H260.399L258.191 100H256.127L254.507 93.3418L252.887 100H250.822L248.614 90.0469H250.658L252.005 97.1152L253.646 90.0469H255.382L257.016 97.1289Z" fill="black"/>
<path d="M306.243 97.3887C306.243 97.0013 306.106 96.7051 305.833 96.5C305.56 96.2904 305.067 96.0716 304.356 95.8438C303.646 95.6113 303.083 95.3835 302.668 95.1602C301.538 94.5495 300.973 93.7269 300.973 92.6924C300.973 92.1546 301.123 91.6761 301.424 91.2568C301.729 90.833 302.164 90.5026 302.729 90.2656C303.299 90.0286 303.937 89.9102 304.644 89.9102C305.354 89.9102 305.988 90.04 306.544 90.2998C307.1 90.555 307.531 90.9173 307.836 91.3867C308.146 91.8561 308.301 92.3893 308.301 92.9863H306.25C306.25 92.5306 306.106 92.1774 305.819 91.9268C305.532 91.6715 305.129 91.5439 304.609 91.5439C304.108 91.5439 303.718 91.651 303.44 91.8652C303.162 92.0749 303.023 92.3529 303.023 92.6992C303.023 93.0228 303.185 93.2939 303.509 93.5127C303.837 93.7314 304.318 93.9365 304.951 94.1279C306.118 94.4788 306.968 94.9141 307.501 95.4336C308.034 95.9531 308.301 96.6003 308.301 97.375C308.301 98.2363 307.975 98.9131 307.323 99.4053C306.672 99.8929 305.794 100.137 304.691 100.137C303.926 100.137 303.229 99.9977 302.6 99.7197C301.971 99.4372 301.49 99.0521 301.157 98.5645C300.829 98.0768 300.665 97.5117 300.665 96.8691H302.723C302.723 97.9674 303.379 98.5166 304.691 98.5166C305.179 98.5166 305.56 98.4186 305.833 98.2227C306.106 98.0221 306.243 97.7441 306.243 97.3887Z" fill="black"/>
<path d="M356.243 97.3887C356.243 97.0013 356.106 96.7051 355.833 96.5C355.56 96.2904 355.067 96.0716 354.356 95.8438C353.646 95.6113 353.083 95.3835 352.668 95.1602C351.538 94.5495 350.973 93.7269 350.973 92.6924C350.973 92.1546 351.123 91.6761 351.424 91.2568C351.729 90.833 352.164 90.5026 352.729 90.2656C353.299 90.0286 353.937 89.9102 354.644 89.9102C355.354 89.9102 355.988 90.04 356.544 90.2998C357.1 90.555 357.531 90.9173 357.836 91.3867C358.146 91.8561 358.301 92.3893 358.301 92.9863H356.25C356.25 92.5306 356.106 92.1774 355.819 91.9268C355.532 91.6715 355.129 91.5439 354.609 91.5439C354.108 91.5439 353.718 91.651 353.44 91.8652C353.162 92.0749 353.023 92.3529 353.023 92.6992C353.023 93.0228 353.185 93.2939 353.509 93.5127C353.837 93.7314 354.318 93.9365 354.951 94.1279C356.118 94.4788 356.968 94.9141 357.501 95.4336C358.034 95.9531 358.301 96.6003 358.301 97.375C358.301 98.2363 357.975 98.9131 357.323 99.4053C356.672 99.8929 355.794 100.137 354.691 100.137C353.926 100.137 353.229 99.9977 352.6 99.7197C351.971 99.4372 351.49 99.0521 351.157 98.5645C350.829 98.0768 350.665 97.5117 350.665 96.8691H352.723C352.723 97.9674 353.379 98.5166 354.691 98.5166C355.179 98.5166 355.56 98.4186 355.833 98.2227C356.106 98.0221 356.243 97.7441 356.243 97.3887Z" fill="black"/>
<path opacity="0.2" d="M53.4873 136H46.9658V135.091L50.4111 131.263C50.9215 130.684 51.2725 130.215 51.4639 129.854C51.6598 129.49 51.7578 129.114 51.7578 128.727C51.7578 128.207 51.6006 127.781 51.2861 127.448C50.9717 127.116 50.5524 126.949 50.0283 126.949C49.3994 126.949 48.9095 127.129 48.5586 127.489C48.2122 127.845 48.0391 128.341 48.0391 128.979H46.7744C46.7744 128.063 47.0684 127.323 47.6562 126.758C48.2487 126.193 49.0394 125.91 50.0283 125.91C50.9535 125.91 51.6849 126.154 52.2227 126.642C52.7604 127.125 53.0293 127.77 53.0293 128.576C53.0293 129.556 52.4049 130.723 51.1562 132.076L48.4902 134.968H53.4873V136ZM59.79 126.04V127.113H59.5576C58.5732 127.132 57.7894 127.423 57.2061 127.988C56.6227 128.553 56.2855 129.349 56.1943 130.374C56.7184 129.772 57.4339 129.472 58.3408 129.472C59.2067 129.472 59.8971 129.777 60.4121 130.388C60.9316 130.998 61.1914 131.787 61.1914 132.753C61.1914 133.778 60.9111 134.599 60.3506 135.214C59.7946 135.829 59.0472 136.137 58.1084 136.137C57.1559 136.137 56.3835 135.772 55.791 135.043C55.1986 134.309 54.9023 133.366 54.9023 132.213V131.728C54.9023 129.896 55.292 128.496 56.0713 127.53C56.8551 126.56 58.0195 126.063 59.5645 126.04H59.79ZM58.1289 130.524C57.696 130.524 57.2972 130.654 56.9326 130.914C56.568 131.174 56.3151 131.5 56.1738 131.892V132.356C56.1738 133.177 56.3584 133.838 56.7275 134.339C57.0967 134.84 57.557 135.091 58.1084 135.091C58.6781 135.091 59.1247 134.881 59.4482 134.462C59.7764 134.043 59.9404 133.493 59.9404 132.814C59.9404 132.131 59.7741 131.579 59.4414 131.16C59.1133 130.736 58.6758 130.524 58.1289 130.524Z" fill="black"/>
<path opacity="0.2" d="M103.487 136H96.9658V135.091L100.411 131.263C100.922 130.684 101.272 130.215 101.464 129.854C101.66 129.49 101.758 129.114 101.758 128.727C101.758 128.207 101.601 127.781 101.286 127.448C100.972 127.116 100.552 126.949 100.028 126.949C99.3994 126.949 98.9095 127.129 98.5586 127.489C98.2122 127.845 98.0391 128.341 98.0391 128.979H96.7744C96.7744 128.063 97.0684 127.323 97.6562 126.758C98.2487 126.193 99.0394 125.91 100.028 125.91C100.953 125.91 101.685 126.154 102.223 126.642C102.76 127.125 103.029 127.77 103.029 128.576C103.029 129.556 102.405 130.723 101.156 132.076L98.4902 134.968H103.487V136ZM111.253 126.758L107.131 136H105.805L109.913 127.086H104.526V126.047H111.253V126.758Z" fill="black"/>
<path opacity="0.2" d="M153.487 136H146.966V135.091L150.411 131.263C150.922 130.684 151.272 130.215 151.464 129.854C151.66 129.49 151.758 129.114 151.758 128.727C151.758 128.207 151.601 127.781 151.286 127.448C150.972 127.116 150.552 126.949 150.028 126.949C149.399 126.949 148.91 127.129 148.559 127.489C148.212 127.845 148.039 128.341 148.039 128.979H146.774C146.774 128.063 147.068 127.323 147.656 126.758C148.249 126.193 149.039 125.91 150.028 125.91C150.953 125.91 151.685 126.154 152.223 126.642C152.76 127.125 153.029 127.77 153.029 128.576C153.029 129.556 152.405 130.723 151.156 132.076L148.49 134.968H153.487V136ZM160.863 128.645C160.863 129.141 160.731 129.583 160.467 129.971C160.207 130.358 159.854 130.661 159.407 130.88C159.927 131.103 160.337 131.429 160.638 131.857C160.943 132.286 161.096 132.771 161.096 133.313C161.096 134.175 160.804 134.861 160.221 135.371C159.642 135.882 158.879 136.137 157.931 136.137C156.974 136.137 156.206 135.882 155.627 135.371C155.053 134.856 154.766 134.17 154.766 133.313C154.766 132.776 154.911 132.29 155.203 131.857C155.499 131.424 155.907 131.096 156.427 130.873C155.985 130.654 155.636 130.351 155.381 129.964C155.126 129.576 154.998 129.137 154.998 128.645C154.998 127.806 155.267 127.141 155.805 126.648C156.342 126.156 157.051 125.91 157.931 125.91C158.806 125.91 159.512 126.156 160.05 126.648C160.592 127.141 160.863 127.806 160.863 128.645ZM159.831 133.286C159.831 132.73 159.653 132.277 159.298 131.926C158.947 131.575 158.487 131.399 157.917 131.399C157.347 131.399 156.889 131.573 156.543 131.919C156.201 132.265 156.03 132.721 156.03 133.286C156.03 133.851 156.197 134.296 156.529 134.619C156.867 134.943 157.334 135.104 157.931 135.104C158.523 135.104 158.988 134.943 159.325 134.619C159.662 134.291 159.831 133.847 159.831 133.286ZM157.931 126.949C157.434 126.949 157.031 127.104 156.721 127.414C156.415 127.719 156.263 128.136 156.263 128.665C156.263 129.171 156.413 129.581 156.714 129.896C157.019 130.205 157.425 130.36 157.931 130.36C158.437 130.36 158.84 130.205 159.141 129.896C159.446 129.581 159.599 129.171 159.599 128.665C159.599 128.159 159.441 127.747 159.127 127.428C158.812 127.109 158.414 126.949 157.931 126.949Z" fill="black"/>
<path opacity="0.2" d="M203.487 136H196.966V135.091L200.411 131.263C200.922 130.684 201.272 130.215 201.464 129.854C201.66 129.49 201.758 129.114 201.758 128.727C201.758 128.207 201.601 127.781 201.286 127.448C200.972 127.116 200.552 126.949 200.028 126.949C199.399 126.949 198.91 127.129 198.559 127.489C198.212 127.845 198.039 128.341 198.039 128.979H196.774C196.774 128.063 197.068 127.323 197.656 126.758C198.249 126.193 199.039 125.91 200.028 125.91C200.953 125.91 201.685 126.154 202.223 126.642C202.76 127.125 203.029 127.77 203.029 128.576C203.029 129.556 202.405 130.723 201.156 132.076L198.49 134.968H203.487V136ZM209.674 131.625C209.41 131.939 209.093 132.192 208.724 132.384C208.359 132.575 207.958 132.671 207.521 132.671C206.946 132.671 206.445 132.53 206.017 132.247C205.593 131.965 205.265 131.568 205.032 131.058C204.8 130.543 204.684 129.975 204.684 129.355C204.684 128.69 204.809 128.091 205.06 127.558C205.315 127.024 205.675 126.617 206.14 126.334C206.604 126.051 207.147 125.91 207.767 125.91C208.751 125.91 209.526 126.279 210.091 127.018C210.66 127.751 210.945 128.754 210.945 130.025V130.395C210.945 132.331 210.562 133.746 209.797 134.64C209.031 135.528 207.876 135.984 206.331 136.007H206.085V134.94H206.352C207.395 134.922 208.197 134.651 208.758 134.127C209.318 133.598 209.624 132.764 209.674 131.625ZM207.726 131.625C208.149 131.625 208.539 131.495 208.895 131.235C209.255 130.976 209.517 130.654 209.681 130.271V129.766C209.681 128.936 209.501 128.262 209.141 127.742C208.781 127.223 208.325 126.963 207.773 126.963C207.217 126.963 206.771 127.177 206.434 127.605C206.096 128.029 205.928 128.59 205.928 129.287C205.928 129.966 206.09 130.527 206.413 130.969C206.741 131.406 207.179 131.625 207.726 131.625Z" fill="black"/>
<path opacity="0.2" d="M248.805 130.408H249.755C250.352 130.399 250.821 130.242 251.163 129.937C251.505 129.631 251.676 129.219 251.676 128.699C251.676 127.533 251.095 126.949 249.933 126.949C249.386 126.949 248.948 127.106 248.62 127.421C248.297 127.731 248.135 128.143 248.135 128.658H246.87C246.87 127.87 247.157 127.216 247.731 126.696C248.31 126.172 249.044 125.91 249.933 125.91C250.871 125.91 251.607 126.159 252.141 126.655C252.674 127.152 252.94 127.842 252.94 128.727C252.94 129.16 252.799 129.579 252.517 129.984C252.239 130.39 251.858 130.693 251.375 130.894C251.922 131.067 252.343 131.354 252.64 131.755C252.94 132.156 253.091 132.646 253.091 133.225C253.091 134.118 252.799 134.826 252.216 135.351C251.632 135.875 250.874 136.137 249.939 136.137C249.005 136.137 248.244 135.884 247.656 135.378C247.073 134.872 246.781 134.204 246.781 133.375H248.053C248.053 133.899 248.224 134.318 248.565 134.633C248.907 134.947 249.365 135.104 249.939 135.104C250.55 135.104 251.017 134.945 251.341 134.626C251.664 134.307 251.826 133.849 251.826 133.252C251.826 132.673 251.648 132.229 251.293 131.919C250.938 131.609 250.425 131.45 249.755 131.44H248.805V130.408ZM261.068 131.755C261.068 133.236 260.815 134.337 260.31 135.057C259.804 135.777 259.013 136.137 257.938 136.137C256.876 136.137 256.09 135.786 255.579 135.084C255.069 134.378 254.804 133.325 254.786 131.926V130.237C254.786 128.774 255.039 127.688 255.545 126.977C256.051 126.266 256.844 125.91 257.924 125.91C258.995 125.91 259.783 126.254 260.289 126.942C260.795 127.626 261.055 128.683 261.068 130.114V131.755ZM259.804 130.025C259.804 128.954 259.653 128.175 259.353 127.688C259.052 127.195 258.576 126.949 257.924 126.949C257.277 126.949 256.805 127.193 256.509 127.681C256.213 128.168 256.06 128.918 256.051 129.93V131.953C256.051 133.029 256.206 133.824 256.516 134.339C256.83 134.849 257.304 135.104 257.938 135.104C258.562 135.104 259.024 134.863 259.325 134.38C259.631 133.897 259.79 133.136 259.804 132.097V130.025Z" fill="black"/>
<path opacity="0.2" d="M298.805 130.408H299.755C300.352 130.399 300.821 130.242 301.163 129.937C301.505 129.631 301.676 129.219 301.676 128.699C301.676 127.533 301.095 126.949 299.933 126.949C299.386 126.949 298.948 127.106 298.62 127.421C298.297 127.731 298.135 128.143 298.135 128.658H296.87C296.87 127.87 297.157 127.216 297.731 126.696C298.31 126.172 299.044 125.91 299.933 125.91C300.871 125.91 301.607 126.159 302.141 126.655C302.674 127.152 302.94 127.842 302.94 128.727C302.94 129.16 302.799 129.579 302.517 129.984C302.239 130.39 301.858 130.693 301.375 130.894C301.922 131.067 302.343 131.354 302.64 131.755C302.94 132.156 303.091 132.646 303.091 133.225C303.091 134.118 302.799 134.826 302.216 135.351C301.632 135.875 300.874 136.137 299.939 136.137C299.005 136.137 298.244 135.884 297.656 135.378C297.073 134.872 296.781 134.204 296.781 133.375H298.053C298.053 133.899 298.224 134.318 298.565 134.633C298.907 134.947 299.365 135.104 299.939 135.104C300.55 135.104 301.017 134.945 301.341 134.626C301.664 134.307 301.826 133.849 301.826 133.252C301.826 132.673 301.648 132.229 301.293 131.919C300.938 131.609 300.425 131.45 299.755 131.44H298.805V130.408ZM308.983 136H307.712V127.571L305.162 128.508V127.359L308.785 125.999H308.983V136Z" fill="black"/>
<path d="M355.053 136H353.781V127.571L351.231 128.508V127.359L354.854 125.999H355.053V136Z" fill="#397FFE"/>
<path d="M57.418 187H50.8965V186.091L54.3418 182.263C54.8522 181.684 55.2031 181.215 55.3945 180.854C55.5905 180.49 55.6885 180.114 55.6885 179.727C55.6885 179.207 55.5312 178.781 55.2168 178.448C54.9023 178.116 54.4831 177.949 53.959 177.949C53.3301 177.949 52.8402 178.129 52.4893 178.489C52.1429 178.845 51.9697 179.341 51.9697 179.979H50.7051C50.7051 179.063 50.999 178.323 51.5869 177.758C52.1794 177.193 52.9701 176.91 53.959 176.91C54.8841 176.91 55.6156 177.154 56.1533 177.642C56.6911 178.125 56.96 178.77 56.96 179.576C56.96 180.556 56.3356 181.723 55.0869 183.076L52.4209 185.968H57.418V187Z" fill="#397FFE"/>
<path d="M102.735 181.408H103.686C104.283 181.399 104.752 181.242 105.094 180.937C105.436 180.631 105.606 180.219 105.606 179.699C105.606 178.533 105.025 177.949 103.863 177.949C103.316 177.949 102.879 178.106 102.551 178.421C102.227 178.731 102.065 179.143 102.065 179.658H100.801C100.801 178.87 101.088 178.216 101.662 177.696C102.241 177.172 102.975 176.91 103.863 176.91C104.802 176.91 105.538 177.159 106.071 177.655C106.604 178.152 106.871 178.842 106.871 179.727C106.871 180.16 106.73 180.579 106.447 180.984C106.169 181.39 105.789 181.693 105.306 181.894C105.853 182.067 106.274 182.354 106.57 182.755C106.871 183.156 107.021 183.646 107.021 184.225C107.021 185.118 106.73 185.826 106.146 186.351C105.563 186.875 104.804 187.137 103.87 187.137C102.936 187.137 102.175 186.884 101.587 186.378C101.004 185.872 100.712 185.204 100.712 184.375H101.983C101.983 184.899 102.154 185.318 102.496 185.633C102.838 185.947 103.296 186.104 103.87 186.104C104.481 186.104 104.948 185.945 105.271 185.626C105.595 185.307 105.757 184.849 105.757 184.252C105.757 183.673 105.579 183.229 105.224 182.919C104.868 182.609 104.355 182.45 103.686 182.44H102.735V181.408Z" fill="#397FFE"/>
<path d="M156.235 183.657H157.616V184.689H156.235V187H154.964V184.689H150.432V183.944L154.889 177.047H156.235V183.657ZM151.867 183.657H154.964V178.776L154.813 179.05L151.867 183.657Z" fill="#397FFE"/>
<path d="M201.478 182.01L201.983 177.047H207.083V178.216H203.057L202.756 180.93C203.243 180.643 203.797 180.499 204.417 180.499C205.324 180.499 206.044 180.8 206.577 181.401C207.11 181.998 207.377 182.807 207.377 183.828C207.377 184.854 207.099 185.662 206.543 186.255C205.992 186.843 205.219 187.137 204.226 187.137C203.346 187.137 202.628 186.893 202.072 186.405C201.516 185.918 201.2 185.243 201.122 184.382H202.318C202.396 184.951 202.599 185.382 202.927 185.674C203.255 185.961 203.688 186.104 204.226 186.104C204.813 186.104 205.274 185.904 205.606 185.503C205.944 185.102 206.112 184.548 206.112 183.842C206.112 183.176 205.93 182.643 205.565 182.242C205.205 181.837 204.725 181.634 204.123 181.634C203.572 181.634 203.139 181.755 202.824 181.996L202.489 182.27L201.478 182.01Z" fill="#397FFE"/>
<path d="M255.859 177.04V178.113H255.627C254.643 178.132 253.859 178.423 253.275 178.988C252.692 179.553 252.355 180.349 252.264 181.374C252.788 180.772 253.503 180.472 254.41 180.472C255.276 180.472 255.966 180.777 256.481 181.388C257.001 181.998 257.261 182.787 257.261 183.753C257.261 184.778 256.98 185.599 256.42 186.214C255.864 186.829 255.117 187.137 254.178 187.137C253.225 187.137 252.453 186.772 251.86 186.043C251.268 185.309 250.972 184.366 250.972 183.213V182.728C250.972 180.896 251.361 179.496 252.141 178.53C252.924 177.56 254.089 177.063 255.634 177.04H255.859ZM254.198 181.524C253.765 181.524 253.367 181.654 253.002 181.914C252.637 182.174 252.384 182.5 252.243 182.892V183.356C252.243 184.177 252.428 184.838 252.797 185.339C253.166 185.84 253.626 186.091 254.178 186.091C254.747 186.091 255.194 185.881 255.518 185.462C255.846 185.043 256.01 184.493 256.01 183.814C256.01 183.131 255.843 182.579 255.511 182.16C255.183 181.736 254.745 181.524 254.198 181.524Z" fill="#397FFE"/>
<path d="M307.322 177.758L303.2 187H301.874L305.982 178.086H300.596V177.047H307.322V177.758Z" fill="white"/>
<path d="M356.933 179.645C356.933 180.141 356.8 180.583 356.536 180.971C356.276 181.358 355.923 181.661 355.477 181.88C355.996 182.103 356.406 182.429 356.707 182.857C357.012 183.286 357.165 183.771 357.165 184.313C357.165 185.175 356.873 185.861 356.29 186.371C355.711 186.882 354.948 187.137 354 187.137C353.043 187.137 352.275 186.882 351.696 186.371C351.122 185.856 350.835 185.17 350.835 184.313C350.835 183.776 350.981 183.29 351.272 182.857C351.569 182.424 351.977 182.096 352.496 181.873C352.054 181.654 351.705 181.351 351.45 180.964C351.195 180.576 351.067 180.137 351.067 179.645C351.067 178.806 351.336 178.141 351.874 177.648C352.412 177.156 353.12 176.91 354 176.91C354.875 176.91 355.581 177.156 356.119 177.648C356.661 178.141 356.933 178.806 356.933 179.645ZM355.9 184.286C355.9 183.73 355.723 183.277 355.367 182.926C355.016 182.575 354.556 182.399 353.986 182.399C353.417 182.399 352.959 182.573 352.612 182.919C352.271 183.265 352.1 183.721 352.1 184.286C352.1 184.851 352.266 185.296 352.599 185.619C352.936 185.943 353.403 186.104 354 186.104C354.592 186.104 355.057 185.943 355.395 185.619C355.732 185.291 355.9 184.847 355.9 184.286ZM354 177.949C353.503 177.949 353.1 178.104 352.79 178.414C352.485 178.719 352.332 179.136 352.332 179.665C352.332 180.171 352.482 180.581 352.783 180.896C353.089 181.205 353.494 181.36 354 181.36C354.506 181.36 354.909 181.205 355.21 180.896C355.515 180.581 355.668 180.171 355.668 179.665C355.668 179.159 355.511 178.747 355.196 178.428C354.882 178.109 354.483 177.949 354 177.949Z" fill="#397FFE"/>
<path d="M55.7432 233.625C55.4788 233.939 55.1621 234.192 54.793 234.384C54.4284 234.575 54.0273 234.671 53.5898 234.671C53.0156 234.671 52.5143 234.53 52.0859 234.247C51.6621 233.965 51.334 233.568 51.1016 233.058C50.8691 232.543 50.7529 231.975 50.7529 231.355C50.7529 230.69 50.8783 230.091 51.1289 229.558C51.3841 229.024 51.7441 228.617 52.209 228.334C52.6738 228.051 53.2161 227.91 53.8359 227.91C54.8203 227.91 55.5951 228.279 56.1602 229.018C56.7298 229.751 57.0146 230.754 57.0146 232.025V232.395C57.0146 234.331 56.6318 235.746 55.8662 236.64C55.1006 237.528 53.9453 237.984 52.4004 238.007H52.1543V236.94H52.4209C53.4645 236.922 54.2666 236.651 54.8271 236.127C55.3877 235.598 55.693 234.764 55.7432 233.625ZM53.7949 233.625C54.2188 233.625 54.6084 233.495 54.9639 233.235C55.3239 232.976 55.5859 232.654 55.75 232.271V231.766C55.75 230.936 55.57 230.262 55.21 229.742C54.8499 229.223 54.3942 228.963 53.8428 228.963C53.2868 228.963 52.8402 229.177 52.5029 229.605C52.1657 230.029 51.9971 230.59 51.9971 231.287C51.9971 231.966 52.1589 232.527 52.4824 232.969C52.8105 233.406 53.248 233.625 53.7949 233.625Z" fill="#397FFE"/>
<path d="M101.122 238H99.8506V229.571L97.3008 230.508V229.359L100.924 227.999H101.122V238ZM111.068 233.755C111.068 235.236 110.815 236.337 110.31 237.057C109.804 237.777 109.013 238.137 107.938 238.137C106.876 238.137 106.09 237.786 105.579 237.084C105.069 236.378 104.804 235.325 104.786 233.926V232.237C104.786 230.774 105.039 229.688 105.545 228.977C106.051 228.266 106.844 227.91 107.924 227.91C108.995 227.91 109.783 228.254 110.289 228.942C110.795 229.626 111.055 230.683 111.068 232.114V233.755ZM109.804 232.025C109.804 230.954 109.653 230.175 109.353 229.688C109.052 229.195 108.576 228.949 107.924 228.949C107.277 228.949 106.805 229.193 106.509 229.681C106.213 230.168 106.06 230.918 106.051 231.93V233.953C106.051 235.029 106.206 235.824 106.516 236.339C106.83 236.849 107.304 237.104 107.938 237.104C108.562 237.104 109.024 236.863 109.325 236.38C109.631 235.897 109.79 235.136 109.804 234.097V232.025Z" fill="#397FFE"/>
<path d="M151.122 238H149.851V229.571L147.301 230.508V229.359L150.924 227.999H151.122V238ZM158.983 238H157.712V229.571L155.162 230.508V229.359L158.785 227.999H158.983V238Z" fill="#397FFE"/>
<path d="M201.122 238H199.851V229.571L197.301 230.508V229.359L200.924 227.999H201.122V238ZM211.349 238H204.827V237.091L208.272 233.263C208.783 232.684 209.134 232.215 209.325 231.854C209.521 231.49 209.619 231.114 209.619 230.727C209.619 230.207 209.462 229.781 209.147 229.448C208.833 229.116 208.414 228.949 207.89 228.949C207.261 228.949 206.771 229.129 206.42 229.489C206.074 229.845 205.9 230.341 205.9 230.979H204.636C204.636 230.063 204.93 229.323 205.518 228.758C206.11 228.193 206.901 227.91 207.89 227.91C208.815 227.91 209.546 228.154 210.084 228.642C210.622 229.125 210.891 229.77 210.891 230.576C210.891 231.556 210.266 232.723 209.018 234.076L206.352 236.968H211.349V238Z" fill="#397FFE"/>
<path d="M251.122 238H249.851V229.571L247.301 230.508V229.359L250.924 227.999H251.122V238ZM256.666 232.408H257.616C258.213 232.399 258.683 232.242 259.024 231.937C259.366 231.631 259.537 231.219 259.537 230.699C259.537 229.533 258.956 228.949 257.794 228.949C257.247 228.949 256.81 229.106 256.481 229.421C256.158 229.731 255.996 230.143 255.996 230.658H254.731C254.731 229.87 255.019 229.216 255.593 228.696C256.172 228.172 256.905 227.91 257.794 227.91C258.733 227.91 259.469 228.159 260.002 228.655C260.535 229.152 260.802 229.842 260.802 230.727C260.802 231.16 260.66 231.579 260.378 231.984C260.1 232.39 259.719 232.693 259.236 232.894C259.783 233.067 260.205 233.354 260.501 233.755C260.802 234.156 260.952 234.646 260.952 235.225C260.952 236.118 260.66 236.826 260.077 237.351C259.494 237.875 258.735 238.137 257.801 238.137C256.867 238.137 256.105 237.884 255.518 237.378C254.934 236.872 254.643 236.204 254.643 235.375H255.914C255.914 235.899 256.085 236.318 256.427 236.633C256.769 236.947 257.227 237.104 257.801 237.104C258.411 237.104 258.879 236.945 259.202 236.626C259.526 236.307 259.688 235.849 259.688 235.252C259.688 234.673 259.51 234.229 259.154 233.919C258.799 233.609 258.286 233.45 257.616 233.44H256.666V232.408Z" fill="#397FFE"/>
<path d="M301.122 238H299.851V229.571L297.301 230.508V229.359L300.924 227.999H301.122V238ZM310.166 234.657H311.547V235.689H310.166V238H308.895V235.689H304.362V234.944L308.819 228.047H310.166V234.657ZM305.798 234.657H308.895V229.776L308.744 230.05L305.798 234.657Z" fill="#397FFE"/>
<path d="M351.122 238H349.851V229.571L347.301 230.508V229.359L350.924 227.999H351.122V238ZM355.408 233.01L355.914 228.047H361.014V229.216H356.987L356.687 231.93C357.174 231.643 357.728 231.499 358.348 231.499C359.255 231.499 359.975 231.8 360.508 232.401C361.041 232.998 361.308 233.807 361.308 234.828C361.308 235.854 361.03 236.662 360.474 237.255C359.922 237.843 359.15 238.137 358.156 238.137C357.277 238.137 356.559 237.893 356.003 237.405C355.447 236.918 355.13 236.243 355.053 235.382H356.249C356.326 235.951 356.529 236.382 356.857 236.674C357.186 236.961 357.618 237.104 358.156 237.104C358.744 237.104 359.204 236.904 359.537 236.503C359.874 236.102 360.043 235.548 360.043 234.842C360.043 234.176 359.861 233.643 359.496 233.242C359.136 232.837 358.655 232.634 358.054 232.634C357.502 232.634 357.069 232.755 356.755 232.996L356.42 233.27L355.408 233.01Z" fill="#397FFE"/>
<path d="M51.1221 289H49.8506V280.571L47.3008 281.508V280.359L50.9238 278.999H51.1221V289ZM59.79 279.04V280.113H59.5576C58.5732 280.132 57.7894 280.423 57.2061 280.988C56.6227 281.553 56.2855 282.349 56.1943 283.374C56.7184 282.772 57.4339 282.472 58.3408 282.472C59.2067 282.472 59.8971 282.777 60.4121 283.388C60.9316 283.998 61.1914 284.787 61.1914 285.753C61.1914 286.778 60.9111 287.599 60.3506 288.214C59.7946 288.829 59.0472 289.137 58.1084 289.137C57.1559 289.137 56.3835 288.772 55.791 288.043C55.1986 287.309 54.9023 286.366 54.9023 285.213V284.728C54.9023 282.896 55.292 281.496 56.0713 280.53C56.8551 279.56 58.0195 279.063 59.5645 279.04H59.79ZM58.1289 283.524C57.696 283.524 57.2972 283.654 56.9326 283.914C56.568 284.174 56.3151 284.5 56.1738 284.892V285.356C56.1738 286.177 56.3584 286.838 56.7275 287.339C57.0967 287.84 57.557 288.091 58.1084 288.091C58.6781 288.091 59.1247 287.881 59.4482 287.462C59.7764 287.043 59.9404 286.493 59.9404 285.814C59.9404 285.131 59.7741 284.579 59.4414 284.16C59.1133 283.736 58.6758 283.524 58.1289 283.524Z" fill="#397FFE"/>
<path d="M101.122 289H99.8506V280.571L97.3008 281.508V280.359L100.924 278.999H101.122V289ZM111.253 279.758L107.131 289H105.805L109.913 280.086H104.526V279.047H111.253V279.758Z" fill="white"/>
<path d="M151.122 289H149.851V280.571L147.301 281.508V280.359L150.924 278.999H151.122V289ZM160.863 281.645C160.863 282.141 160.731 282.583 160.467 282.971C160.207 283.358 159.854 283.661 159.407 283.88C159.927 284.103 160.337 284.429 160.638 284.857C160.943 285.286 161.096 285.771 161.096 286.313C161.096 287.175 160.804 287.861 160.221 288.371C159.642 288.882 158.879 289.137 157.931 289.137C156.974 289.137 156.206 288.882 155.627 288.371C155.053 287.856 154.766 287.17 154.766 286.313C154.766 285.776 154.911 285.29 155.203 284.857C155.499 284.424 155.907 284.096 156.427 283.873C155.985 283.654 155.636 283.351 155.381 282.964C155.126 282.576 154.998 282.137 154.998 281.645C154.998 280.806 155.267 280.141 155.805 279.648C156.342 279.156 157.051 278.91 157.931 278.91C158.806 278.91 159.512 279.156 160.05 279.648C160.592 280.141 160.863 280.806 160.863 281.645ZM159.831 286.286C159.831 285.73 159.653 285.277 159.298 284.926C158.947 284.575 158.487 284.399 157.917 284.399C157.347 284.399 156.889 284.573 156.543 284.919C156.201 285.265 156.03 285.721 156.03 286.286C156.03 286.851 156.197 287.296 156.529 287.619C156.867 287.943 157.334 288.104 157.931 288.104C158.523 288.104 158.988 287.943 159.325 287.619C159.662 287.291 159.831 286.847 159.831 286.286ZM157.931 279.949C157.434 279.949 157.031 280.104 156.721 280.414C156.415 280.719 156.263 281.136 156.263 281.665C156.263 282.171 156.413 282.581 156.714 282.896C157.019 283.205 157.425 283.36 157.931 283.36C158.437 283.36 158.84 283.205 159.141 282.896C159.446 282.581 159.599 282.171 159.599 281.665C159.599 281.159 159.441 280.747 159.127 280.428C158.812 280.109 158.414 279.949 157.931 279.949Z" fill="white"/>
<path d="M201.122 289H199.851V280.571L197.301 281.508V280.359L200.924 278.999H201.122V289ZM209.674 284.625C209.41 284.939 209.093 285.192 208.724 285.384C208.359 285.575 207.958 285.671 207.521 285.671C206.946 285.671 206.445 285.53 206.017 285.247C205.593 284.965 205.265 284.568 205.032 284.058C204.8 283.543 204.684 282.975 204.684 282.355C204.684 281.69 204.809 281.091 205.06 280.558C205.315 280.024 205.675 279.617 206.14 279.334C206.604 279.051 207.147 278.91 207.767 278.91C208.751 278.91 209.526 279.279 210.091 280.018C210.66 280.751 210.945 281.754 210.945 283.025V283.395C210.945 285.331 210.562 286.746 209.797 287.64C209.031 288.528 207.876 288.984 206.331 289.007H206.085V287.94H206.352C207.395 287.922 208.197 287.651 208.758 287.127C209.318 286.598 209.624 285.764 209.674 284.625ZM207.726 284.625C208.149 284.625 208.539 284.495 208.895 284.235C209.255 283.976 209.517 283.654 209.681 283.271V282.766C209.681 281.936 209.501 281.262 209.141 280.742C208.781 280.223 208.325 279.963 207.773 279.963C207.217 279.963 206.771 280.177 206.434 280.605C206.096 281.029 205.928 281.59 205.928 282.287C205.928 282.966 206.09 283.527 206.413 283.969C206.741 284.406 207.179 284.625 207.726 284.625Z" fill="#397FFE"/>
<path d="M253.487 289H246.966V288.091L250.411 284.263C250.922 283.684 251.272 283.215 251.464 282.854C251.66 282.49 251.758 282.114 251.758 281.727C251.758 281.207 251.601 280.781 251.286 280.448C250.972 280.116 250.552 279.949 250.028 279.949C249.399 279.949 248.91 280.129 248.559 280.489C248.212 280.845 248.039 281.341 248.039 281.979H246.774C246.774 281.063 247.068 280.323 247.656 279.758C248.249 279.193 249.039 278.91 250.028 278.91C250.953 278.91 251.685 279.154 252.223 279.642C252.76 280.125 253.029 280.77 253.029 281.576C253.029 282.556 252.405 283.723 251.156 285.076L248.49 287.968H253.487V289ZM261.068 284.755C261.068 286.236 260.815 287.337 260.31 288.057C259.804 288.777 259.013 289.137 257.938 289.137C256.876 289.137 256.09 288.786 255.579 288.084C255.069 287.378 254.804 286.325 254.786 284.926V283.237C254.786 281.774 255.039 280.688 255.545 279.977C256.051 279.266 256.844 278.91 257.924 278.91C258.995 278.91 259.783 279.254 260.289 279.942C260.795 280.626 261.055 281.683 261.068 283.114V284.755ZM259.804 283.025C259.804 281.954 259.653 281.175 259.353 280.688C259.052 280.195 258.576 279.949 257.924 279.949C257.277 279.949 256.805 280.193 256.509 280.681C256.213 281.168 256.06 281.918 256.051 282.93V284.953C256.051 286.029 256.206 286.824 256.516 287.339C256.83 287.849 257.304 288.104 257.938 288.104C258.562 288.104 259.024 287.863 259.325 287.38C259.631 286.897 259.79 286.136 259.804 285.097V283.025Z" fill="#397FFE"/>
<path d="M303.487 289H296.966V288.091L300.411 284.263C300.922 283.684 301.272 283.215 301.464 282.854C301.66 282.49 301.758 282.114 301.758 281.727C301.758 281.207 301.601 280.781 301.286 280.448C300.972 280.116 300.552 279.949 300.028 279.949C299.399 279.949 298.91 280.129 298.559 280.489C298.212 280.845 298.039 281.341 298.039 281.979H296.774C296.774 281.063 297.068 280.323 297.656 279.758C298.249 279.193 299.039 278.91 300.028 278.91C300.953 278.91 301.685 279.154 302.223 279.642C302.76 280.125 303.029 280.77 303.029 281.576C303.029 282.556 302.405 283.723 301.156 285.076L298.49 287.968H303.487V289ZM308.983 289H307.712V280.571L305.162 281.508V280.359L308.785 278.999H308.983V289Z" fill="#397FFE"/>
<path d="M353.487 289H346.966V288.091L350.411 284.263C350.922 283.684 351.272 283.215 351.464 282.854C351.66 282.49 351.758 282.114 351.758 281.727C351.758 281.207 351.601 280.781 351.286 280.448C350.972 280.116 350.552 279.949 350.028 279.949C349.399 279.949 348.91 280.129 348.559 280.489C348.212 280.845 348.039 281.341 348.039 281.979H346.774C346.774 281.063 347.068 280.323 347.656 279.758C348.249 279.193 349.039 278.91 350.028 278.91C350.953 278.91 351.685 279.154 352.223 279.642C352.76 280.125 353.029 280.77 353.029 281.576C353.029 282.556 352.405 283.723 351.156 285.076L348.49 287.968H353.487V289ZM361.349 289H354.827V288.091L358.272 284.263C358.783 283.684 359.134 283.215 359.325 282.854C359.521 282.49 359.619 282.114 359.619 281.727C359.619 281.207 359.462 280.781 359.147 280.448C358.833 280.116 358.414 279.949 357.89 279.949C357.261 279.949 356.771 280.129 356.42 280.489C356.074 280.845 355.9 281.341 355.9 281.979H354.636C354.636 281.063 354.93 280.323 355.518 279.758C356.11 279.193 356.901 278.91 357.89 278.91C358.815 278.91 359.546 279.154 360.084 279.642C360.622 280.125 360.891 280.77 360.891 281.576C360.891 282.556 360.266 283.723 359.018 285.076L356.352 287.968H361.349V289Z" fill="#397FFE"/>
<path d="M53.4873 340H46.9658V339.091L50.4111 335.263C50.9215 334.684 51.2725 334.215 51.4639 333.854C51.6598 333.49 51.7578 333.114 51.7578 332.727C51.7578 332.207 51.6006 331.781 51.2861 331.448C50.9717 331.116 50.5524 330.949 50.0283 330.949C49.3994 330.949 48.9095 331.129 48.5586 331.489C48.2122 331.845 48.0391 332.341 48.0391 332.979H46.7744C46.7744 332.063 47.0684 331.323 47.6562 330.758C48.2487 330.193 49.0394 329.91 50.0283 329.91C50.9535 329.91 51.6849 330.154 52.2227 330.642C52.7604 331.125 53.0293 331.77 53.0293 332.576C53.0293 333.556 52.4049 334.723 51.1562 336.076L48.4902 338.968H53.4873V340ZM56.666 334.408H57.6162C58.2132 334.399 58.6826 334.242 59.0244 333.937C59.3662 333.631 59.5371 333.219 59.5371 332.699C59.5371 331.533 58.9561 330.949 57.7939 330.949C57.2471 330.949 56.8096 331.106 56.4814 331.421C56.1579 331.731 55.9961 332.143 55.9961 332.658H54.7314C54.7314 331.87 55.0186 331.216 55.5928 330.696C56.1715 330.172 56.9053 329.91 57.7939 329.91C58.7327 329.91 59.4688 330.159 60.002 330.655C60.5352 331.152 60.8018 331.842 60.8018 332.727C60.8018 333.16 60.6605 333.579 60.3779 333.984C60.0999 334.39 59.7194 334.693 59.2363 334.894C59.7832 335.067 60.2048 335.354 60.501 335.755C60.8018 336.156 60.9521 336.646 60.9521 337.225C60.9521 338.118 60.6605 338.826 60.0771 339.351C59.4938 339.875 58.735 340.137 57.8008 340.137C56.8665 340.137 56.1055 339.884 55.5176 339.378C54.9342 338.872 54.6426 338.204 54.6426 337.375H55.9141C55.9141 337.899 56.085 338.318 56.4268 338.633C56.7686 338.947 57.2266 339.104 57.8008 339.104C58.4115 339.104 58.8786 338.945 59.2021 338.626C59.5257 338.307 59.6875 337.849 59.6875 337.252C59.6875 336.673 59.5098 336.229 59.1543 335.919C58.7988 335.609 58.2861 335.45 57.6162 335.44H56.666V334.408Z" fill="#397FFE"/>
<path d="M103.487 340H96.9658V339.091L100.411 335.263C100.922 334.684 101.272 334.215 101.464 333.854C101.66 333.49 101.758 333.114 101.758 332.727C101.758 332.207 101.601 331.781 101.286 331.448C100.972 331.116 100.552 330.949 100.028 330.949C99.3994 330.949 98.9095 331.129 98.5586 331.489C98.2122 331.845 98.0391 332.341 98.0391 332.979H96.7744C96.7744 332.063 97.0684 331.323 97.6562 330.758C98.2487 330.193 99.0394 329.91 100.028 329.91C100.953 329.91 101.685 330.154 102.223 330.642C102.76 331.125 103.029 331.77 103.029 332.576C103.029 333.556 102.405 334.723 101.156 336.076L98.4902 338.968H103.487V340ZM110.166 336.657H111.547V337.689H110.166V340H108.895V337.689H104.362V336.944L108.819 330.047H110.166V336.657ZM105.798 336.657H108.895V331.776L108.744 332.05L105.798 336.657Z" fill="#397FFE"/>
<path d="M153.487 340H146.966V339.091L150.411 335.263C150.922 334.684 151.272 334.215 151.464 333.854C151.66 333.49 151.758 333.114 151.758 332.727C151.758 332.207 151.601 331.781 151.286 331.448C150.972 331.116 150.552 330.949 150.028 330.949C149.399 330.949 148.91 331.129 148.559 331.489C148.212 331.845 148.039 332.341 148.039 332.979H146.774C146.774 332.063 147.068 331.323 147.656 330.758C148.249 330.193 149.039 329.91 150.028 329.91C150.953 329.91 151.685 330.154 152.223 330.642C152.76 331.125 153.029 331.77 153.029 332.576C153.029 333.556 152.405 334.723 151.156 336.076L148.49 338.968H153.487V340ZM155.408 335.01L155.914 330.047H161.014V331.216H156.987L156.687 333.93C157.174 333.643 157.728 333.499 158.348 333.499C159.255 333.499 159.975 333.8 160.508 334.401C161.041 334.998 161.308 335.807 161.308 336.828C161.308 337.854 161.03 338.662 160.474 339.255C159.922 339.843 159.15 340.137 158.156 340.137C157.277 340.137 156.559 339.893 156.003 339.405C155.447 338.918 155.13 338.243 155.053 337.382H156.249C156.326 337.951 156.529 338.382 156.857 338.674C157.186 338.961 157.618 339.104 158.156 339.104C158.744 339.104 159.204 338.904 159.537 338.503C159.874 338.102 160.043 337.548 160.043 336.842C160.043 336.176 159.861 335.643 159.496 335.242C159.136 334.837 158.655 334.634 158.054 334.634C157.502 334.634 157.069 334.755 156.755 334.996L156.42 335.27L155.408 335.01Z" fill="#397FFE"/>
<path d="M203.487 340H196.966V339.091L200.411 335.263C200.922 334.684 201.272 334.215 201.464 333.854C201.66 333.49 201.758 333.114 201.758 332.727C201.758 332.207 201.601 331.781 201.286 331.448C200.972 331.116 200.552 330.949 200.028 330.949C199.399 330.949 198.91 331.129 198.559 331.489C198.212 331.845 198.039 332.341 198.039 332.979H196.774C196.774 332.063 197.068 331.323 197.656 330.758C198.249 330.193 199.039 329.91 200.028 329.91C200.953 329.91 201.685 330.154 202.223 330.642C202.76 331.125 203.029 331.77 203.029 332.576C203.029 333.556 202.405 334.723 201.156 336.076L198.49 338.968H203.487V340ZM209.79 330.04V331.113H209.558C208.573 331.132 207.789 331.423 207.206 331.988C206.623 332.553 206.285 333.349 206.194 334.374C206.718 333.772 207.434 333.472 208.341 333.472C209.207 333.472 209.897 333.777 210.412 334.388C210.932 334.998 211.191 335.787 211.191 336.753C211.191 337.778 210.911 338.599 210.351 339.214C209.795 339.829 209.047 340.137 208.108 340.137C207.156 340.137 206.383 339.772 205.791 339.043C205.199 338.309 204.902 337.366 204.902 336.213V335.728C204.902 333.896 205.292 332.496 206.071 331.53C206.855 330.56 208.02 330.063 209.564 330.04H209.79ZM208.129 334.524C207.696 334.524 207.297 334.654 206.933 334.914C206.568 335.174 206.315 335.5 206.174 335.892V336.356C206.174 337.177 206.358 337.838 206.728 338.339C207.097 338.84 207.557 339.091 208.108 339.091C208.678 339.091 209.125 338.881 209.448 338.462C209.776 338.043 209.94 337.493 209.94 336.814C209.94 336.131 209.774 335.579 209.441 335.16C209.113 334.736 208.676 334.524 208.129 334.524Z" fill="#397FFE"/>
<path d="M253.487 340H246.966V339.091L250.411 335.263C250.922 334.684 251.272 334.215 251.464 333.854C251.66 333.49 251.758 333.114 251.758 332.727C251.758 332.207 251.601 331.781 251.286 331.448C250.972 331.116 250.552 330.949 250.028 330.949C249.399 330.949 248.91 331.129 248.559 331.489C248.212 331.845 248.039 332.341 248.039 332.979H246.774C246.774 332.063 247.068 331.323 247.656 330.758C248.249 330.193 249.039 329.91 250.028 329.91C250.953 329.91 251.685 330.154 252.223 330.642C252.76 331.125 253.029 331.77 253.029 332.576C253.029 333.556 252.405 334.723 251.156 336.076L248.49 338.968H253.487V340ZM261.253 330.758L257.131 340H255.805L259.913 331.086H254.526V330.047H261.253V330.758Z" fill="#397FFE"/>
<path d="M303.487 340H296.966V339.091L300.411 335.263C300.922 334.684 301.272 334.215 301.464 333.854C301.66 333.49 301.758 333.114 301.758 332.727C301.758 332.207 301.601 331.781 301.286 331.448C300.972 331.116 300.552 330.949 300.028 330.949C299.399 330.949 298.91 331.129 298.559 331.489C298.212 331.845 298.039 332.341 298.039 332.979H296.774C296.774 332.063 297.068 331.323 297.656 330.758C298.249 330.193 299.039 329.91 300.028 329.91C300.953 329.91 301.685 330.154 302.223 330.642C302.76 331.125 303.029 331.77 303.029 332.576C303.029 333.556 302.405 334.723 301.156 336.076L298.49 338.968H303.487V340ZM310.863 332.645C310.863 333.141 310.731 333.583 310.467 333.971C310.207 334.358 309.854 334.661 309.407 334.88C309.927 335.103 310.337 335.429 310.638 335.857C310.943 336.286 311.096 336.771 311.096 337.313C311.096 338.175 310.804 338.861 310.221 339.371C309.642 339.882 308.879 340.137 307.931 340.137C306.974 340.137 306.206 339.882 305.627 339.371C305.053 338.856 304.766 338.17 304.766 337.313C304.766 336.776 304.911 336.29 305.203 335.857C305.499 335.424 305.907 335.096 306.427 334.873C305.985 334.654 305.636 334.351 305.381 333.964C305.126 333.576 304.998 333.137 304.998 332.645C304.998 331.806 305.267 331.141 305.805 330.648C306.342 330.156 307.051 329.91 307.931 329.91C308.806 329.91 309.512 330.156 310.05 330.648C310.592 331.141 310.863 331.806 310.863 332.645ZM309.831 337.286C309.831 336.73 309.653 336.277 309.298 335.926C308.947 335.575 308.487 335.399 307.917 335.399C307.347 335.399 306.889 335.573 306.543 335.919C306.201 336.265 306.03 336.721 306.03 337.286C306.03 337.851 306.197 338.296 306.529 338.619C306.867 338.943 307.334 339.104 307.931 339.104C308.523 339.104 308.988 338.943 309.325 338.619C309.662 338.291 309.831 337.847 309.831 337.286ZM307.931 330.949C307.434 330.949 307.031 331.104 306.721 331.414C306.415 331.719 306.263 332.136 306.263 332.665C306.263 333.171 306.413 333.581 306.714 333.896C307.019 334.205 307.425 334.36 307.931 334.36C308.437 334.36 308.84 334.205 309.141 333.896C309.446 333.581 309.599 333.171 309.599 332.665C309.599 332.159 309.441 331.747 309.127 331.428C308.812 331.109 308.414 330.949 307.931 330.949Z" fill="white"/>
<path d="M353.487 340H346.966V339.091L350.411 335.263C350.922 334.684 351.272 334.215 351.464 333.854C351.66 333.49 351.758 333.114 351.758 332.727C351.758 332.207 351.601 331.781 351.286 331.448C350.972 331.116 350.552 330.949 350.028 330.949C349.399 330.949 348.91 331.129 348.559 331.489C348.212 331.845 348.039 332.341 348.039 332.979H346.774C346.774 332.063 347.068 331.323 347.656 330.758C348.249 330.193 349.039 329.91 350.028 329.91C350.953 329.91 351.685 330.154 352.223 330.642C352.76 331.125 353.029 331.77 353.029 332.576C353.029 333.556 352.405 334.723 351.156 336.076L348.49 338.968H353.487V340ZM359.674 335.625C359.41 335.939 359.093 336.192 358.724 336.384C358.359 336.575 357.958 336.671 357.521 336.671C356.946 336.671 356.445 336.53 356.017 336.247C355.593 335.965 355.265 335.568 355.032 335.058C354.8 334.543 354.684 333.975 354.684 333.355C354.684 332.69 354.809 332.091 355.06 331.558C355.315 331.024 355.675 330.617 356.14 330.334C356.604 330.051 357.147 329.91 357.767 329.91C358.751 329.91 359.526 330.279 360.091 331.018C360.66 331.751 360.945 332.754 360.945 334.025V334.395C360.945 336.331 360.562 337.746 359.797 338.64C359.031 339.528 357.876 339.984 356.331 340.007H356.085V338.94H356.352C357.395 338.922 358.197 338.651 358.758 338.127C359.318 337.598 359.624 336.764 359.674 335.625ZM357.726 335.625C358.149 335.625 358.539 335.495 358.895 335.235C359.255 334.976 359.517 334.654 359.681 334.271V333.766C359.681 332.936 359.501 332.262 359.141 331.742C358.781 331.223 358.325 330.963 357.773 330.963C357.217 330.963 356.771 331.177 356.434 331.605C356.096 332.029 355.928 332.59 355.928 333.287C355.928 333.966 356.09 334.527 356.413 334.969C356.741 335.406 357.179 335.625 357.726 335.625Z" fill="#397FFE"/>
<path d="M48.8047 385.408H49.7549C50.3519 385.399 50.8213 385.242 51.1631 384.937C51.5049 384.631 51.6758 384.219 51.6758 383.699C51.6758 382.533 51.0947 381.949 49.9326 381.949C49.3857 381.949 48.9482 382.106 48.6201 382.421C48.2965 382.731 48.1348 383.143 48.1348 383.658H46.8701C46.8701 382.87 47.1572 382.216 47.7314 381.696C48.3102 381.172 49.0439 380.91 49.9326 380.91C50.8714 380.91 51.6074 381.159 52.1406 381.655C52.6738 382.152 52.9404 382.842 52.9404 383.727C52.9404 384.16 52.7992 384.579 52.5166 384.984C52.2386 385.39 51.8581 385.693 51.375 385.894C51.9219 386.067 52.3434 386.354 52.6396 386.755C52.9404 387.156 53.0908 387.646 53.0908 388.225C53.0908 389.118 52.7992 389.826 52.2158 390.351C51.6325 390.875 50.8737 391.137 49.9395 391.137C49.0052 391.137 48.2441 390.884 47.6562 390.378C47.0729 389.872 46.7812 389.204 46.7812 388.375H48.0527C48.0527 388.899 48.2236 389.318 48.5654 389.633C48.9072 389.947 49.3652 390.104 49.9395 390.104C50.5501 390.104 51.0173 389.945 51.3408 389.626C51.6644 389.307 51.8262 388.849 51.8262 388.252C51.8262 387.673 51.6484 387.229 51.293 386.919C50.9375 386.609 50.4248 386.45 49.7549 386.44H48.8047V385.408ZM61.0684 386.755C61.0684 388.236 60.8154 389.337 60.3096 390.057C59.8037 390.777 59.013 391.137 57.9375 391.137C56.8757 391.137 56.0895 390.786 55.5791 390.084C55.0687 389.378 54.8044 388.325 54.7861 386.926V385.237C54.7861 383.774 55.0391 382.688 55.5449 381.977C56.0508 381.266 56.8438 380.91 57.9238 380.91C58.9948 380.91 59.7832 381.254 60.2891 381.942C60.7949 382.626 61.0547 383.683 61.0684 385.114V386.755ZM59.8037 385.025C59.8037 383.954 59.6533 383.175 59.3525 382.688C59.0518 382.195 58.5755 381.949 57.9238 381.949C57.2767 381.949 56.805 382.193 56.5088 382.681C56.2126 383.168 56.0599 383.918 56.0508 384.93V386.953C56.0508 388.029 56.2057 388.824 56.5156 389.339C56.8301 389.849 57.304 390.104 57.9375 390.104C58.5618 390.104 59.0244 389.863 59.3252 389.38C59.6305 388.897 59.79 388.136 59.8037 387.097V385.025Z" fill="#397FFE"/>
<path opacity="0.2" d="M105.053 391H103.781V382.571L101.231 383.508V382.359L104.854 380.999H105.053V391Z" fill="black"/>
<path opacity="0.2" d="M157.418 391H150.896V390.091L154.342 386.263C154.852 385.684 155.203 385.215 155.395 384.854C155.59 384.49 155.688 384.114 155.688 383.727C155.688 383.207 155.531 382.781 155.217 382.448C154.902 382.116 154.483 381.949 153.959 381.949C153.33 381.949 152.84 382.129 152.489 382.489C152.143 382.845 151.97 383.341 151.97 383.979H150.705C150.705 383.063 150.999 382.323 151.587 381.758C152.179 381.193 152.97 380.91 153.959 380.91C154.884 380.91 155.616 381.154 156.153 381.642C156.691 382.125 156.96 382.77 156.96 383.576C156.96 384.556 156.336 385.723 155.087 387.076L152.421 389.968H157.418V391Z" fill="black"/>
<path opacity="0.2" d="M202.735 385.408H203.686C204.283 385.399 204.752 385.242 205.094 384.937C205.436 384.631 205.606 384.219 205.606 383.699C205.606 382.533 205.025 381.949 203.863 381.949C203.316 381.949 202.879 382.106 202.551 382.421C202.227 382.731 202.065 383.143 202.065 383.658H200.801C200.801 382.87 201.088 382.216 201.662 381.696C202.241 381.172 202.975 380.91 203.863 380.91C204.802 380.91 205.538 381.159 206.071 381.655C206.604 382.152 206.871 382.842 206.871 383.727C206.871 384.16 206.73 384.579 206.447 384.984C206.169 385.39 205.789 385.693 205.306 385.894C205.853 386.067 206.274 386.354 206.57 386.755C206.871 387.156 207.021 387.646 207.021 388.225C207.021 389.118 206.73 389.826 206.146 390.351C205.563 390.875 204.804 391.137 203.87 391.137C202.936 391.137 202.175 390.884 201.587 390.378C201.004 389.872 200.712 389.204 200.712 388.375H201.983C201.983 388.899 202.154 389.318 202.496 389.633C202.838 389.947 203.296 390.104 203.87 390.104C204.481 390.104 204.948 389.945 205.271 389.626C205.595 389.307 205.757 388.849 205.757 388.252C205.757 387.673 205.579 387.229 205.224 386.919C204.868 386.609 204.355 386.45 203.686 386.44H202.735V385.408Z" fill="black"/>
<path opacity="0.2" d="M256.235 387.657H257.616V388.689H256.235V391H254.964V388.689H250.432V387.944L254.889 381.047H256.235V387.657ZM251.867 387.657H254.964V382.776L254.813 383.05L251.867 387.657Z" fill="black"/>
<path opacity="0.2" d="M301.478 386.01L301.983 381.047H307.083V382.216H303.057L302.756 384.93C303.243 384.643 303.797 384.499 304.417 384.499C305.324 384.499 306.044 384.8 306.577 385.401C307.11 385.998 307.377 386.807 307.377 387.828C307.377 388.854 307.099 389.662 306.543 390.255C305.992 390.843 305.219 391.137 304.226 391.137C303.346 391.137 302.628 390.893 302.072 390.405C301.516 389.918 301.2 389.243 301.122 388.382H302.318C302.396 388.951 302.599 389.382 302.927 389.674C303.255 389.961 303.688 390.104 304.226 390.104C304.813 390.104 305.274 389.904 305.606 389.503C305.944 389.102 306.112 388.548 306.112 387.842C306.112 387.176 305.93 386.643 305.565 386.242C305.205 385.837 304.725 385.634 304.123 385.634C303.572 385.634 303.139 385.755 302.824 385.996L302.489 386.27L301.478 386.01Z" fill="black"/>
<path opacity="0.2" d="M355.859 381.04V382.113H355.627C354.643 382.132 353.859 382.423 353.275 382.988C352.692 383.553 352.355 384.349 352.264 385.374C352.788 384.772 353.503 384.472 354.41 384.472C355.276 384.472 355.966 384.777 356.481 385.388C357.001 385.998 357.261 386.787 357.261 387.753C357.261 388.778 356.98 389.599 356.42 390.214C355.864 390.829 355.117 391.137 354.178 391.137C353.225 391.137 352.453 390.772 351.86 390.043C351.268 389.309 350.972 388.366 350.972 387.213V386.728C350.972 384.896 351.361 383.496 352.141 382.53C352.924 381.56 354.089 381.063 355.634 381.04H355.859ZM354.198 385.524C353.765 385.524 353.367 385.654 353.002 385.914C352.637 386.174 352.384 386.5 352.243 386.892V387.356C352.243 388.177 352.428 388.838 352.797 389.339C353.166 389.84 353.626 390.091 354.178 390.091C354.747 390.091 355.194 389.881 355.518 389.462C355.846 389.043 356.01 388.493 356.01 387.814C356.01 387.131 355.843 386.579 355.511 386.16C355.183 385.736 354.745 385.524 354.198 385.524Z" fill="black"/>
<path d="M89.9902 46V37.4688H92.3984C93.1406 37.4688 93.7969 37.6328 94.3672 37.9609C94.9375 38.2891 95.377 38.7559 95.6855 39.3613C95.998 39.9668 96.1562 40.6621 96.1602 41.4473V41.9922C96.1602 42.7969 96.0039 43.502 95.6914 44.1074C95.3828 44.7129 94.9395 45.1777 94.3613 45.502C93.7871 45.8262 93.1172 45.9922 92.3516 46H89.9902ZM91.1152 38.3945V45.0801H92.2988C93.166 45.0801 93.8398 44.8105 94.3203 44.2715C94.8047 43.7324 95.0469 42.9648 95.0469 41.9688V41.4707C95.0469 40.502 94.8184 39.75 94.3613 39.2148C93.9082 38.6758 93.2637 38.4023 92.4277 38.3945H91.1152ZM100.326 46.1172C99.4668 46.1172 98.7676 45.8359 98.2285 45.2734C97.6895 44.707 97.4199 43.9512 97.4199 43.0059V42.8066C97.4199 42.1777 97.5391 41.6172 97.7773 41.125C98.0195 40.6289 98.3555 40.2422 98.7852 39.9648C99.2188 39.6836 99.6875 39.543 100.191 39.543C101.016 39.543 101.656 39.8145 102.113 40.3574C102.57 40.9004 102.799 41.6777 102.799 42.6895V43.1406H98.5039C98.5195 43.7656 98.7012 44.2715 99.0488 44.6582C99.4004 45.041 99.8457 45.2324 100.385 45.2324C100.768 45.2324 101.092 45.1543 101.357 44.998C101.623 44.8418 101.855 44.6348 102.055 44.377L102.717 44.8926C102.186 45.709 101.389 46.1172 100.326 46.1172ZM100.191 40.4336C99.7539 40.4336 99.3867 40.5938 99.0898 40.9141C98.793 41.2305 98.6094 41.6758 98.5391 42.25H101.715V42.168C101.684 41.6172 101.535 41.1914 101.27 40.8906C101.004 40.5859 100.645 40.4336 100.191 40.4336ZM106.602 45.2324C106.988 45.2324 107.326 45.1152 107.615 44.8809C107.904 44.6465 108.064 44.3535 108.096 44.002H109.121C109.102 44.3652 108.977 44.7109 108.746 45.0391C108.516 45.3672 108.207 45.6289 107.82 45.8242C107.438 46.0195 107.031 46.1172 106.602 46.1172C105.738 46.1172 105.051 45.8301 104.539 45.2559C104.031 44.6777 103.777 43.8887 103.777 42.8887V42.707C103.777 42.0898 103.891 41.541 104.117 41.0605C104.344 40.5801 104.668 40.207 105.09 39.9414C105.516 39.6758 106.018 39.543 106.596 39.543C107.307 39.543 107.896 39.7559 108.365 40.1816C108.838 40.6074 109.09 41.1602 109.121 41.8398H108.096C108.064 41.4297 107.908 41.0938 107.627 40.832C107.35 40.5664 107.006 40.4336 106.596 40.4336C106.045 40.4336 105.617 40.6328 105.312 41.0312C105.012 41.4258 104.861 41.998 104.861 42.748V42.9531C104.861 43.6836 105.012 44.2461 105.312 44.6406C105.613 45.0352 106.043 45.2324 106.602 45.2324ZM112.971 46.1172C112.111 46.1172 111.412 45.8359 110.873 45.2734C110.334 44.707 110.064 43.9512 110.064 43.0059V42.8066C110.064 42.1777 110.184 41.6172 110.422 41.125C110.664 40.6289 111 40.2422 111.43 39.9648C111.863 39.6836 112.332 39.543 112.836 39.543C113.66 39.543 114.301 39.8145 114.758 40.3574C115.215 40.9004 115.443 41.6777 115.443 42.6895V43.1406H111.148C111.164 43.7656 111.346 44.2715 111.693 44.6582C112.045 45.041 112.49 45.2324 113.029 45.2324C113.412 45.2324 113.736 45.1543 114.002 44.998C114.268 44.8418 114.5 44.6348 114.699 44.377L115.361 44.8926C114.83 45.709 114.033 46.1172 112.971 46.1172ZM112.836 40.4336C112.398 40.4336 112.031 40.5938 111.734 40.9141C111.438 41.2305 111.254 41.6758 111.184 42.25H114.359V42.168C114.328 41.6172 114.18 41.1914 113.914 40.8906C113.648 40.5859 113.289 40.4336 112.836 40.4336ZM117.723 39.6602L117.752 40.3633C118.217 39.8164 118.844 39.543 119.633 39.543C120.52 39.543 121.123 39.8828 121.443 40.5625C121.654 40.2578 121.928 40.0117 122.264 39.8242C122.604 39.6367 123.004 39.543 123.465 39.543C124.855 39.543 125.562 40.2793 125.586 41.752V46H124.502V41.8164C124.502 41.3633 124.398 41.0254 124.191 40.8027C123.984 40.5762 123.637 40.4629 123.148 40.4629C122.746 40.4629 122.412 40.584 122.146 40.8262C121.881 41.0645 121.727 41.3867 121.684 41.793V46H120.594V41.8457C120.594 40.9238 120.143 40.4629 119.24 40.4629C118.529 40.4629 118.043 40.7656 117.781 41.3711V46H116.697V39.6602H117.723ZM132.594 42.9004C132.594 43.8691 132.371 44.6484 131.926 45.2383C131.48 45.8242 130.883 46.1172 130.133 46.1172C129.332 46.1172 128.713 45.834 128.275 45.2676L128.223 46H127.227V37H128.311V40.3574C128.748 39.8145 129.352 39.543 130.121 39.543C130.891 39.543 131.494 39.834 131.932 40.416C132.373 40.998 132.594 41.7949 132.594 42.8066V42.9004ZM131.51 42.7773C131.51 42.0391 131.367 41.4688 131.082 41.0664C130.797 40.6641 130.387 40.4629 129.852 40.4629C129.137 40.4629 128.623 40.7949 128.311 41.459V44.2012C128.643 44.8652 129.16 45.1973 129.863 45.1973C130.383 45.1973 130.787 44.9961 131.076 44.5938C131.365 44.1914 131.51 43.5859 131.51 42.7773ZM136.596 46.1172C135.736 46.1172 135.037 45.8359 134.498 45.2734C133.959 44.707 133.689 43.9512 133.689 43.0059V42.8066C133.689 42.1777 133.809 41.6172 134.047 41.125C134.289 40.6289 134.625 40.2422 135.055 39.9648C135.488 39.6836 135.957 39.543 136.461 39.543C137.285 39.543 137.926 39.8145 138.383 40.3574C138.84 40.9004 139.068 41.6777 139.068 42.6895V43.1406H134.773C134.789 43.7656 134.971 44.2715 135.318 44.6582C135.67 45.041 136.115 45.2324 136.654 45.2324C137.037 45.2324 137.361 45.1543 137.627 44.998C137.893 44.8418 138.125 44.6348 138.324 44.377L138.986 44.8926C138.455 45.709 137.658 46.1172 136.596 46.1172ZM136.461 40.4336C136.023 40.4336 135.656 40.5938 135.359 40.9141C135.062 41.2305 134.879 41.6758 134.809 42.25H137.984V42.168C137.953 41.6172 137.805 41.1914 137.539 40.8906C137.273 40.5859 136.914 40.4336 136.461 40.4336ZM143.393 40.6328C143.229 40.6055 143.051 40.5918 142.859 40.5918C142.148 40.5918 141.666 40.8945 141.412 41.5V46H140.328V39.6602H141.383L141.4 40.3926C141.756 39.8262 142.26 39.543 142.912 39.543C143.123 39.543 143.283 39.5703 143.393 39.625V40.6328Z" fill="black" fill-opacity="0.5"/>
<path d="M189.359 37.4688H190.836V43.4512C190.836 44.2676 190.58 44.916 190.068 45.3965C189.561 45.877 188.889 46.1172 188.053 46.1172C187.162 46.1172 186.475 45.8926 185.99 45.4434C185.506 44.9941 185.264 44.3691 185.264 43.5684H186.74C186.74 44.0215 186.852 44.3633 187.074 44.5938C187.301 44.8203 187.627 44.9336 188.053 44.9336C188.451 44.9336 188.768 44.8027 189.002 44.541C189.24 44.2754 189.359 43.9102 189.359 43.4453V37.4688ZM196.186 46C196.123 45.8789 196.068 45.6816 196.021 45.4082C195.568 45.8809 195.014 46.1172 194.357 46.1172C193.721 46.1172 193.201 45.9355 192.799 45.5723C192.396 45.209 192.195 44.7598 192.195 44.2246C192.195 43.5488 192.445 43.0312 192.945 42.6719C193.449 42.3086 194.168 42.127 195.102 42.127H195.975V41.7109C195.975 41.3828 195.883 41.1211 195.699 40.9258C195.516 40.7266 195.236 40.627 194.861 40.627C194.537 40.627 194.271 40.709 194.064 40.873C193.857 41.0332 193.754 41.2383 193.754 41.4883H192.33C192.33 41.1406 192.445 40.8164 192.676 40.5156C192.906 40.2109 193.219 39.9727 193.613 39.8008C194.012 39.6289 194.455 39.543 194.943 39.543C195.686 39.543 196.277 39.7305 196.719 40.1055C197.16 40.4766 197.387 41 197.398 41.6758V44.5352C197.398 45.1055 197.479 45.5605 197.639 45.9004V46H196.186ZM194.621 44.9746C194.902 44.9746 195.166 44.9062 195.412 44.7695C195.662 44.6328 195.85 44.4492 195.975 44.2188V43.0234H195.207C194.68 43.0234 194.283 43.1152 194.018 43.2988C193.752 43.4824 193.619 43.7422 193.619 44.0781C193.619 44.3516 193.709 44.5703 193.889 44.7344C194.072 44.8945 194.316 44.9746 194.621 44.9746ZM200.211 39.6602L200.252 40.3926C200.721 39.8262 201.336 39.543 202.098 39.543C203.418 39.543 204.09 40.2988 204.113 41.8105V46H202.689V41.8926C202.689 41.4902 202.602 41.1934 202.426 41.002C202.254 40.8066 201.971 40.709 201.576 40.709C201.002 40.709 200.574 40.9688 200.293 41.4883V46H198.869V39.6602H200.211ZM209.41 45.3789C208.992 45.8711 208.398 46.1172 207.629 46.1172C206.941 46.1172 206.42 45.916 206.064 45.5137C205.713 45.1113 205.537 44.5293 205.537 43.7676V39.6602H206.961V43.75C206.961 44.5547 207.295 44.957 207.963 44.957C208.654 44.957 209.121 44.709 209.363 44.2129V39.6602H210.787V46H209.445L209.41 45.3789ZM216.025 46C215.963 45.8789 215.908 45.6816 215.861 45.4082C215.408 45.8809 214.854 46.1172 214.197 46.1172C213.561 46.1172 213.041 45.9355 212.639 45.5723C212.236 45.209 212.035 44.7598 212.035 44.2246C212.035 43.5488 212.285 43.0312 212.785 42.6719C213.289 42.3086 214.008 42.127 214.941 42.127H215.814V41.7109C215.814 41.3828 215.723 41.1211 215.539 40.9258C215.355 40.7266 215.076 40.627 214.701 40.627C214.377 40.627 214.111 40.709 213.904 40.873C213.697 41.0332 213.594 41.2383 213.594 41.4883H212.17C212.17 41.1406 212.285 40.8164 212.516 40.5156C212.746 40.2109 213.059 39.9727 213.453 39.8008C213.852 39.6289 214.295 39.543 214.783 39.543C215.525 39.543 216.117 39.7305 216.559 40.1055C217 40.4766 217.227 41 217.238 41.6758V44.5352C217.238 45.1055 217.318 45.5605 217.479 45.9004V46H216.025ZM214.461 44.9746C214.742 44.9746 215.006 44.9062 215.252 44.7695C215.502 44.6328 215.689 44.4492 215.814 44.2188V43.0234H215.047C214.52 43.0234 214.123 43.1152 213.857 43.2988C213.592 43.4824 213.459 43.7422 213.459 44.0781C213.459 44.3516 213.549 44.5703 213.729 44.7344C213.912 44.8945 214.156 44.9746 214.461 44.9746ZM222.049 40.9609C221.861 40.9297 221.668 40.9141 221.469 40.9141C220.816 40.9141 220.377 41.1641 220.15 41.6641V46H218.727V39.6602H220.086L220.121 40.3691C220.465 39.8184 220.941 39.543 221.551 39.543C221.754 39.543 221.922 39.5703 222.055 39.625L222.049 40.9609ZM225.271 43.9609L226.561 39.6602H228.078L225.559 46.9609C225.172 48.0273 224.516 48.5605 223.59 48.5605C223.383 48.5605 223.154 48.5254 222.904 48.4551V47.3535L223.174 47.3711C223.533 47.3711 223.803 47.3047 223.982 47.1719C224.166 47.043 224.311 46.8242 224.416 46.5156L224.621 45.9707L222.395 39.6602H223.93L225.271 43.9609Z" fill="black"/>
<path d="M274.695 42.2324H271.115V46H269.99V37.4688H275.275V38.3945H271.115V41.3125H274.695V42.2324ZM278.955 46.1172C278.096 46.1172 277.396 45.8359 276.857 45.2734C276.318 44.707 276.049 43.9512 276.049 43.0059V42.8066C276.049 42.1777 276.168 41.6172 276.406 41.125C276.648 40.6289 276.984 40.2422 277.414 39.9648C277.848 39.6836 278.316 39.543 278.82 39.543C279.645 39.543 280.285 39.8145 280.742 40.3574C281.199 40.9004 281.428 41.6777 281.428 42.6895V43.1406H277.133C277.148 43.7656 277.33 44.2715 277.678 44.6582C278.029 45.041 278.475 45.2324 279.014 45.2324C279.396 45.2324 279.721 45.1543 279.986 44.998C280.252 44.8418 280.484 44.6348 280.684 44.377L281.346 44.8926C280.814 45.709 280.018 46.1172 278.955 46.1172ZM278.82 40.4336C278.383 40.4336 278.016 40.5938 277.719 40.9141C277.422 41.2305 277.238 41.6758 277.168 42.25H280.344V42.168C280.312 41.6172 280.164 41.1914 279.898 40.8906C279.633 40.5859 279.273 40.4336 278.82 40.4336ZM288.055 42.9004C288.055 43.8691 287.832 44.6484 287.387 45.2383C286.941 45.8242 286.344 46.1172 285.594 46.1172C284.793 46.1172 284.174 45.834 283.736 45.2676L283.684 46H282.688V37H283.771V40.3574C284.209 39.8145 284.812 39.543 285.582 39.543C286.352 39.543 286.955 39.834 287.393 40.416C287.834 40.998 288.055 41.7949 288.055 42.8066V42.9004ZM286.971 42.7773C286.971 42.0391 286.828 41.4688 286.543 41.0664C286.258 40.6641 285.848 40.4629 285.312 40.4629C284.598 40.4629 284.084 40.7949 283.771 41.459V44.2012C284.104 44.8652 284.621 45.1973 285.324 45.1973C285.844 45.1973 286.248 44.9961 286.537 44.5938C286.826 44.1914 286.971 43.5859 286.971 42.7773ZM292.49 40.6328C292.326 40.6055 292.148 40.5918 291.957 40.5918C291.246 40.5918 290.764 40.8945 290.51 41.5V46H289.426V39.6602H290.48L290.498 40.3926C290.854 39.8262 291.357 39.543 292.01 39.543C292.221 39.543 292.381 39.5703 292.49 39.625V40.6328ZM297.406 45.373C296.984 45.8691 296.365 46.1172 295.549 46.1172C294.873 46.1172 294.357 45.9219 294.002 45.5312C293.65 45.1367 293.473 44.5547 293.469 43.7852V39.6602H294.553V43.7559C294.553 44.7168 294.943 45.1973 295.725 45.1973C296.553 45.1973 297.104 44.8887 297.377 44.2715V39.6602H298.461V46H297.43L297.406 45.373ZM304.027 46C303.965 45.875 303.914 45.6523 303.875 45.332C303.371 45.8555 302.77 46.1172 302.07 46.1172C301.445 46.1172 300.932 45.9414 300.529 45.5898C300.131 45.2344 299.932 44.7852 299.932 44.2422C299.932 43.582 300.182 43.0703 300.682 42.707C301.186 42.3398 301.893 42.1562 302.803 42.1562H303.857V41.6582C303.857 41.2793 303.744 40.9785 303.518 40.7559C303.291 40.5293 302.957 40.416 302.516 40.416C302.129 40.416 301.805 40.5137 301.543 40.709C301.281 40.9043 301.15 41.1406 301.15 41.418H300.061C300.061 41.1016 300.172 40.7969 300.395 40.5039C300.621 40.207 300.926 39.9727 301.309 39.8008C301.695 39.6289 302.119 39.543 302.58 39.543C303.311 39.543 303.883 39.7266 304.297 40.0938C304.711 40.457 304.926 40.959 304.941 41.5996V44.5176C304.941 45.0996 305.016 45.5625 305.164 45.9062V46H304.027ZM302.229 45.1738C302.568 45.1738 302.891 45.0859 303.195 44.9102C303.5 44.7344 303.721 44.5059 303.857 44.2246V42.9238H303.008C301.68 42.9238 301.016 43.3125 301.016 44.0898C301.016 44.4297 301.129 44.6953 301.355 44.8867C301.582 45.0781 301.873 45.1738 302.229 45.1738ZM309.705 40.6328C309.541 40.6055 309.363 40.5918 309.172 40.5918C308.461 40.5918 307.979 40.8945 307.725 41.5V46H306.641V39.6602H307.695L307.713 40.3926C308.068 39.8262 308.572 39.543 309.225 39.543C309.436 39.543 309.596 39.5703 309.705 39.625V40.6328ZM312.887 44.4121L314.363 39.6602H315.523L312.975 46.9785C312.58 48.0332 311.953 48.5605 311.094 48.5605L310.889 48.543L310.484 48.4668V47.5879L310.777 47.6113C311.145 47.6113 311.43 47.5371 311.633 47.3887C311.84 47.2402 312.01 46.9688 312.143 46.5742L312.383 45.9297L310.121 39.6602H311.305L312.887 44.4121Z" fill="black" fill-opacity="0.5"/>
<defs>
<filter id="filter0_d_0_1" x="36" y="25" width="38" height="38" filterUnits="userSpaceOnUse" color-interpolation-filters="sRGB">
<feFlood flood-opacity="0" result="BackgroundImageFix"/>
<feColorMatrix in="SourceAlpha" type="matrix" values="0 0 0 0 0 0 0 0 0 0 0 0 0 0 0 0 0 0 127 0" result="hardAlpha"/>
<feOffset dy="2"/>
<feGaussianBlur stdDeviation="1"/>
<feComposite in2="hardAlpha" operator="out"/>
<feColorMatrix type="matrix" values="0 0 0 0 0 0 0 0 0 0 0 0 0 0 0 0 0 0 0.05 0"/>
<feBlend mode="normal" in2="BackgroundImageFix" result="effect1_dropShadow_0_1"/>
<feBlend mode="normal" in="SourceGraphic" in2="effect1_dropShadow_0_1" result="shape"/>
</filter>
<filter id="filter1_d_0_1" x="336" y="25" width="38" height="38" filterUnits="userSpaceOnUse" color-interpolation-filters="sRGB">
<feFlood flood-opacity="0" result="BackgroundImageFix"/>
<feColorMatrix in="SourceAlpha" type="matrix" values="0 0 0 0 0 0 0 0 0 0 0 0 0 0 0 0 0 0 127 0" result="hardAlpha"/>
<feOffset dy="2"/>
<feGaussianBlur stdDeviation="1"/>
<feComposite in2="hardAlpha" operator="out"/>
<feColorMatrix type="matrix" values="0 0 0 0 0 0 0 0 0 0 0 0 0 0 0 0 0 0 0.05 0"/>
<feBlend mode="normal" in2="BackgroundImageFix" result="effect1_dropShadow_0_1"/>
<feBlend mode="normal" in="SourceGraphic" in2="effect1_dropShadow_0_1" result="shape"/>
</filter>
<linearGradient id="paint0_linear_0_1" x1="282.844" y1="182" x2="326.418" y2="182" gradientUnits="userSpaceOnUse">
<stop stop-color="#FF8C56"/>
<stop offset="1" stop-color="#FFB215"/>
</linearGradient>
<linearGradient id="paint1_linear_0_1" x1="282.844" y1="335" x2="326.418" y2="335" gradientUnits="userSpaceOnUse">
<stop stop-color="#508EFF"/>
<stop offset="1" stop-color="#CB70EA"/>
</linearGradient>
</defs>
</svg>
