<svg width="612" height="208" viewBox="0 0 612 208" fill="none" xmlns="http://www.w3.org/2000/svg">
<path d="M0 38C0 34.6863 2.68629 32 6 32H26C29.3137 32 32 34.6863 32 38V184H0V38Z" fill="#F4F6FA"/>
<path d="M58 67C58 63.6863 60.6863 61 64 61H84C87.3137 61 90 63.6863 90 67V184H58V67Z" fill="#F4F6FA"/>
<path d="M116 115C116 111.686 118.686 109 122 109H142C145.314 109 148 111.686 148 115V184H116V115Z" fill="#F4F6FA"/>
<path d="M174 47C174 43.6863 176.686 41 180 41H200C203.314 41 206 43.6863 206 47V184H174V47Z" fill="#F4F6FA"/>
<path d="M232 6C232 2.68629 234.686 0 238 0H258C261.314 0 264 2.68629 264 6V184H232V6Z" fill="#F4F6FA"/>
<path d="M290 47C290 43.6863 292.686 41 296 41H316C319.314 41 322 43.6863 322 47V184H290V47Z" fill="#F4F6FA"/>
<path d="M348 90C348 86.6863 350.686 84 354 84H374C377.314 84 380 86.6863 380 90V184H348V90Z" fill="#F4F6FA"/>
<path d="M406 70C406 66.6863 408.686 64 412 64H432C435.314 64 438 66.6863 438 70V184H406V70Z" fill="#F4F6FA"/>
<path d="M464 22C464 18.6863 466.686 16 470 16H490C493.314 16 496 18.6863 496 22V184H464V22Z" fill="url(#paint0_linear_0_1)"/>
<path d="M522 70C522 66.6863 524.686 64 528 64H548C551.314 64 554 66.6863 554 70V184H522V70Z" fill="#F4F6FA"/>
<path d="M580 45C580 41.6863 582.686 39 586 39H606C609.314 39 612 41.6863 612 45V184H580V45Z" fill="#F4F6FA"/>
<path d="M10.6797 196.469H11.8105V202.51C11.8105 203.326 11.5645 203.965 11.0723 204.426C10.584 204.887 9.93164 205.117 9.11523 205.117C8.26758 205.117 7.60742 204.9 7.13477 204.467C6.66211 204.033 6.42578 203.426 6.42578 202.645H7.55078C7.55078 203.133 7.68359 203.514 7.94922 203.787C8.21875 204.061 8.60742 204.197 9.11523 204.197C9.58008 204.197 9.95508 204.051 10.2402 203.758C10.5293 203.465 10.6758 203.055 10.6797 202.527V196.469ZM17.4707 205C17.4082 204.875 17.3574 204.652 17.3184 204.332C16.8145 204.855 16.2129 205.117 15.5137 205.117C14.8887 205.117 14.375 204.941 13.9727 204.59C13.5742 204.234 13.375 203.785 13.375 203.242C13.375 202.582 13.625 202.07 14.125 201.707C14.6289 201.34 15.3359 201.156 16.2461 201.156H17.3008V200.658C17.3008 200.279 17.1875 199.979 16.9609 199.756C16.7344 199.529 16.4004 199.416 15.959 199.416C15.5723 199.416 15.248 199.514 14.9863 199.709C14.7246 199.904 14.5938 200.141 14.5938 200.418H13.5039C13.5039 200.102 13.6152 199.797 13.8379 199.504C14.0645 199.207 14.3691 198.973 14.752 198.801C15.1387 198.629 15.5625 198.543 16.0234 198.543C16.7539 198.543 17.3262 198.727 17.7402 199.094C18.1543 199.457 18.3691 199.959 18.3848 200.6V203.518C18.3848 204.1 18.459 204.562 18.6074 204.906V205H17.4707ZM15.6719 204.174C16.0117 204.174 16.334 204.086 16.6387 203.91C16.9434 203.734 17.1641 203.506 17.3008 203.225V201.924H16.4512C15.123 201.924 14.459 202.312 14.459 203.09C14.459 203.43 14.5723 203.695 14.7988 203.887C15.0254 204.078 15.3164 204.174 15.6719 204.174ZM21.1094 198.66L21.1445 199.457C21.6289 198.848 22.2617 198.543 23.043 198.543C24.3828 198.543 25.0586 199.299 25.0703 200.811V205H23.9863V200.805C23.9824 200.348 23.877 200.01 23.6699 199.791C23.4668 199.572 23.1484 199.463 22.7148 199.463C22.3633 199.463 22.0547 199.557 21.7891 199.744C21.5234 199.932 21.3164 200.178 21.168 200.482V205H20.084V198.66H21.1094Z" fill="black" fill-opacity="0.5"/>
<path d="M69.8926 201.232H66.3125V205H65.1875V196.469H70.4727V197.395H66.3125V200.312H69.8926V201.232ZM74.1523 205.117C73.293 205.117 72.5938 204.836 72.0547 204.273C71.5156 203.707 71.2461 202.951 71.2461 202.006V201.807C71.2461 201.178 71.3652 200.617 71.6035 200.125C71.8457 199.629 72.1816 199.242 72.6113 198.965C73.0449 198.684 73.5137 198.543 74.0176 198.543C74.8418 198.543 75.4824 198.814 75.9395 199.357C76.3965 199.9 76.625 200.678 76.625 201.689V202.141H72.3301C72.3457 202.766 72.5273 203.271 72.875 203.658C73.2266 204.041 73.6719 204.232 74.2109 204.232C74.5938 204.232 74.918 204.154 75.1836 203.998C75.4492 203.842 75.6816 203.635 75.8809 203.377L76.543 203.893C76.0117 204.709 75.2148 205.117 74.1523 205.117ZM74.0176 199.434C73.5801 199.434 73.2129 199.594 72.916 199.914C72.6191 200.23 72.4355 200.676 72.3652 201.25H75.541V201.168C75.5098 200.617 75.3613 200.191 75.0957 199.891C74.8301 199.586 74.4707 199.434 74.0176 199.434ZM83.252 201.9C83.252 202.869 83.0293 203.648 82.584 204.238C82.1387 204.824 81.541 205.117 80.791 205.117C79.9902 205.117 79.3711 204.834 78.9336 204.268L78.8809 205H77.8848V196H78.9688V199.357C79.4062 198.814 80.0098 198.543 80.7793 198.543C81.5488 198.543 82.1523 198.834 82.5898 199.416C83.0312 199.998 83.252 200.795 83.252 201.807V201.9ZM82.168 201.777C82.168 201.039 82.0254 200.469 81.7402 200.066C81.4551 199.664 81.0449 199.463 80.5098 199.463C79.7949 199.463 79.2812 199.795 78.9688 200.459V203.201C79.3008 203.865 79.8184 204.197 80.5215 204.197C81.041 204.197 81.4453 203.996 81.7344 203.594C82.0234 203.191 82.168 202.586 82.168 201.777Z" fill="black" fill-opacity="0.5"/>
<path d="M123.908 196.469L126.697 203.43L129.486 196.469H130.945V205H129.82V201.678L129.926 198.092L127.125 205H126.264L123.469 198.109L123.58 201.678V205H122.455V196.469H123.908ZM136.676 205C136.613 204.875 136.562 204.652 136.523 204.332C136.02 204.855 135.418 205.117 134.719 205.117C134.094 205.117 133.58 204.941 133.178 204.59C132.779 204.234 132.58 203.785 132.58 203.242C132.58 202.582 132.83 202.07 133.33 201.707C133.834 201.34 134.541 201.156 135.451 201.156H136.506V200.658C136.506 200.279 136.393 199.979 136.166 199.756C135.939 199.529 135.605 199.416 135.164 199.416C134.777 199.416 134.453 199.514 134.191 199.709C133.93 199.904 133.799 200.141 133.799 200.418H132.709C132.709 200.102 132.82 199.797 133.043 199.504C133.27 199.207 133.574 198.973 133.957 198.801C134.344 198.629 134.768 198.543 135.229 198.543C135.959 198.543 136.531 198.727 136.945 199.094C137.359 199.457 137.574 199.959 137.59 200.6V203.518C137.59 204.1 137.664 204.562 137.812 204.906V205H136.676ZM134.877 204.174C135.217 204.174 135.539 204.086 135.844 203.91C136.148 203.734 136.369 203.506 136.506 203.225V201.924H135.656C134.328 201.924 133.664 202.312 133.664 203.09C133.664 203.43 133.777 203.695 134.004 203.887C134.23 204.078 134.521 204.174 134.877 204.174ZM142.354 199.633C142.189 199.605 142.012 199.592 141.82 199.592C141.109 199.592 140.627 199.895 140.373 200.5V205H139.289V198.66H140.344L140.361 199.393C140.717 198.826 141.221 198.543 141.873 198.543C142.084 198.543 142.244 198.57 142.354 198.625V199.633Z" fill="black" fill-opacity="0.5"/>
<path d="M186.885 202.773H183.311L182.508 205H181.348L184.605 196.469H185.59L188.854 205H187.699L186.885 202.773ZM183.65 201.848H186.551L185.098 197.857L183.65 201.848ZM195.188 201.9C195.188 202.865 194.967 203.643 194.525 204.232C194.084 204.822 193.486 205.117 192.732 205.117C191.963 205.117 191.357 204.873 190.916 204.385V207.438H189.832V198.66H190.822L190.875 199.363C191.316 198.816 191.93 198.543 192.715 198.543C193.477 198.543 194.078 198.83 194.52 199.404C194.965 199.979 195.188 200.777 195.188 201.801V201.9ZM194.104 201.777C194.104 201.062 193.951 200.498 193.646 200.084C193.342 199.67 192.924 199.463 192.393 199.463C191.736 199.463 191.244 199.754 190.916 200.336V203.365C191.24 203.943 191.736 204.232 192.404 204.232C192.924 204.232 193.336 204.027 193.641 203.617C193.949 203.203 194.104 202.59 194.104 201.777ZM199.635 199.633C199.471 199.605 199.293 199.592 199.102 199.592C198.391 199.592 197.908 199.895 197.654 200.5V205H196.57V198.66H197.625L197.643 199.393C197.998 198.826 198.502 198.543 199.154 198.543C199.365 198.543 199.525 198.57 199.635 198.625V199.633Z" fill="black" fill-opacity="0.5"/>
<path d="M239.646 196.469L242.436 203.43L245.225 196.469H246.684V205H245.559V201.678L245.664 198.092L242.863 205H242.002L239.207 198.109L239.318 201.678V205H238.193V196.469H239.646ZM252.414 205C252.352 204.875 252.301 204.652 252.262 204.332C251.758 204.855 251.156 205.117 250.457 205.117C249.832 205.117 249.318 204.941 248.916 204.59C248.518 204.234 248.318 203.785 248.318 203.242C248.318 202.582 248.568 202.07 249.068 201.707C249.572 201.34 250.279 201.156 251.189 201.156H252.244V200.658C252.244 200.279 252.131 199.979 251.904 199.756C251.678 199.529 251.344 199.416 250.902 199.416C250.516 199.416 250.191 199.514 249.93 199.709C249.668 199.904 249.537 200.141 249.537 200.418H248.447C248.447 200.102 248.559 199.797 248.781 199.504C249.008 199.207 249.312 198.973 249.695 198.801C250.082 198.629 250.506 198.543 250.967 198.543C251.697 198.543 252.27 198.727 252.684 199.094C253.098 199.457 253.312 199.959 253.328 200.6V203.518C253.328 204.1 253.402 204.562 253.551 204.906V205H252.414ZM250.615 204.174C250.955 204.174 251.277 204.086 251.582 203.91C251.887 203.734 252.107 203.506 252.244 203.225V201.924H251.395C250.066 201.924 249.402 202.312 249.402 203.09C249.402 203.43 249.516 203.695 249.742 203.887C249.969 204.078 250.26 204.174 250.615 204.174ZM257.008 203.412L258.484 198.66H259.645L257.096 205.979C256.701 207.033 256.074 207.561 255.215 207.561L255.01 207.543L254.605 207.467V206.588L254.898 206.611C255.266 206.611 255.551 206.537 255.754 206.389C255.961 206.24 256.131 205.969 256.264 205.574L256.504 204.93L254.242 198.66H255.426L257.008 203.412Z" fill="black" fill-opacity="0.5"/>
<path d="M300.633 196.469H301.764V202.51C301.764 203.326 301.518 203.965 301.025 204.426C300.537 204.887 299.885 205.117 299.068 205.117C298.221 205.117 297.561 204.9 297.088 204.467C296.615 204.033 296.379 203.426 296.379 202.645H297.504C297.504 203.133 297.637 203.514 297.902 203.787C298.172 204.061 298.561 204.197 299.068 204.197C299.533 204.197 299.908 204.051 300.193 203.758C300.482 203.465 300.629 203.055 300.633 202.527V196.469ZM307.424 204.373C307.002 204.869 306.383 205.117 305.566 205.117C304.891 205.117 304.375 204.922 304.02 204.531C303.668 204.137 303.49 203.555 303.486 202.785V198.66H304.57V202.756C304.57 203.717 304.961 204.197 305.742 204.197C306.57 204.197 307.121 203.889 307.395 203.271V198.66H308.479V205H307.447L307.424 204.373ZM311.156 198.66L311.191 199.457C311.676 198.848 312.309 198.543 313.09 198.543C314.43 198.543 315.105 199.299 315.117 200.811V205H314.033V200.805C314.029 200.348 313.924 200.01 313.717 199.791C313.514 199.572 313.195 199.463 312.762 199.463C312.41 199.463 312.102 199.557 311.836 199.744C311.57 199.932 311.363 200.178 311.215 200.482V205H310.131V198.66H311.156Z" fill="black" fill-opacity="0.5"/>
<path d="M360.984 196.469H362.115V202.51C362.115 203.326 361.869 203.965 361.377 204.426C360.889 204.887 360.236 205.117 359.42 205.117C358.572 205.117 357.912 204.9 357.439 204.467C356.967 204.033 356.73 203.426 356.73 202.645H357.855C357.855 203.133 357.988 203.514 358.254 203.787C358.523 204.061 358.912 204.197 359.42 204.197C359.885 204.197 360.26 204.051 360.545 203.758C360.834 203.465 360.98 203.055 360.984 202.527V196.469ZM367.775 204.373C367.354 204.869 366.734 205.117 365.918 205.117C365.242 205.117 364.727 204.922 364.371 204.531C364.02 204.137 363.842 203.555 363.838 202.785V198.66H364.922V202.756C364.922 203.717 365.312 204.197 366.094 204.197C366.922 204.197 367.473 203.889 367.746 203.271V198.66H368.83V205H367.799L367.775 204.373ZM371.66 205H370.576V196H371.66V205Z" fill="black" fill-opacity="0.5"/>
<path d="M417.143 202.773H413.568L412.766 205H411.605L414.863 196.469H415.848L419.111 205H417.957L417.143 202.773ZM413.908 201.848H416.809L415.355 197.857L413.908 201.848ZM423.934 204.373C423.512 204.869 422.893 205.117 422.076 205.117C421.4 205.117 420.885 204.922 420.529 204.531C420.178 204.137 420 203.555 419.996 202.785V198.66H421.08V202.756C421.08 203.717 421.471 204.197 422.252 204.197C423.08 204.197 423.631 203.889 423.904 203.271V198.66H424.988V205H423.957L423.934 204.373ZM426.383 201.777C426.383 200.789 426.611 200.004 427.068 199.422C427.525 198.836 428.131 198.543 428.885 198.543C429.658 198.543 430.262 198.816 430.695 199.363L430.748 198.66H431.738V204.848C431.738 205.668 431.494 206.314 431.006 206.787C430.521 207.26 429.869 207.496 429.049 207.496C428.592 207.496 428.145 207.398 427.707 207.203C427.27 207.008 426.936 206.74 426.705 206.4L427.268 205.75C427.732 206.324 428.301 206.611 428.973 206.611C429.5 206.611 429.91 206.463 430.203 206.166C430.5 205.869 430.648 205.451 430.648 204.912V204.367C430.215 204.867 429.623 205.117 428.873 205.117C428.131 205.117 427.529 204.818 427.068 204.221C426.611 203.623 426.383 202.809 426.383 201.777ZM427.473 201.9C427.473 202.615 427.619 203.178 427.912 203.588C428.205 203.994 428.615 204.197 429.143 204.197C429.826 204.197 430.328 203.887 430.648 203.266V200.371C430.316 199.766 429.818 199.463 429.154 199.463C428.627 199.463 428.215 199.668 427.918 200.078C427.621 200.488 427.473 201.096 427.473 201.9Z" fill="black" fill-opacity="0.5"/>
<path d="M473.891 201.197C472.926 200.92 472.223 200.58 471.781 200.178C471.344 199.771 471.125 199.271 471.125 198.678C471.125 198.006 471.393 197.451 471.928 197.014C472.467 196.572 473.166 196.352 474.025 196.352C474.611 196.352 475.133 196.465 475.59 196.691C476.051 196.918 476.406 197.23 476.656 197.629C476.91 198.027 477.037 198.463 477.037 198.936H475.906C475.906 198.42 475.742 198.016 475.414 197.723C475.086 197.426 474.623 197.277 474.025 197.277C473.471 197.277 473.037 197.4 472.725 197.646C472.416 197.889 472.262 198.227 472.262 198.66C472.262 199.008 472.408 199.303 472.701 199.545C472.998 199.783 473.5 200.002 474.207 200.201C474.918 200.4 475.473 200.621 475.871 200.863C476.273 201.102 476.57 201.381 476.762 201.701C476.957 202.021 477.055 202.398 477.055 202.832C477.055 203.523 476.785 204.078 476.246 204.496C475.707 204.91 474.986 205.117 474.084 205.117C473.498 205.117 472.951 205.006 472.443 204.783C471.936 204.557 471.543 204.248 471.266 203.857C470.992 203.467 470.855 203.023 470.855 202.527H471.986C471.986 203.043 472.176 203.451 472.555 203.752C472.938 204.049 473.447 204.197 474.084 204.197C474.678 204.197 475.133 204.076 475.449 203.834C475.766 203.592 475.924 203.262 475.924 202.844C475.924 202.426 475.777 202.104 475.484 201.877C475.191 201.646 474.66 201.42 473.891 201.197ZM480.963 205.117C480.104 205.117 479.404 204.836 478.865 204.273C478.326 203.707 478.057 202.951 478.057 202.006V201.807C478.057 201.178 478.176 200.617 478.414 200.125C478.656 199.629 478.992 199.242 479.422 198.965C479.855 198.684 480.324 198.543 480.828 198.543C481.652 198.543 482.293 198.814 482.75 199.357C483.207 199.9 483.436 200.678 483.436 201.689V202.141H479.141C479.156 202.766 479.338 203.271 479.686 203.658C480.037 204.041 480.482 204.232 481.021 204.232C481.404 204.232 481.729 204.154 481.994 203.998C482.26 203.842 482.492 203.635 482.691 203.377L483.354 203.893C482.822 204.709 482.025 205.117 480.963 205.117ZM480.828 199.434C480.391 199.434 480.023 199.594 479.727 199.914C479.43 200.23 479.246 200.676 479.176 201.25H482.352V201.168C482.32 200.617 482.172 200.191 481.906 199.891C481.641 199.586 481.281 199.434 480.828 199.434ZM490.051 201.9C490.051 202.865 489.83 203.643 489.389 204.232C488.947 204.822 488.35 205.117 487.596 205.117C486.826 205.117 486.221 204.873 485.779 204.385V207.438H484.695V198.66H485.686L485.738 199.363C486.18 198.816 486.793 198.543 487.578 198.543C488.34 198.543 488.941 198.83 489.383 199.404C489.828 199.979 490.051 200.777 490.051 201.801V201.9ZM488.967 201.777C488.967 201.062 488.814 200.498 488.51 200.084C488.205 199.67 487.787 199.463 487.256 199.463C486.6 199.463 486.107 199.754 485.779 200.336V203.365C486.104 203.943 486.6 204.232 487.268 204.232C487.787 204.232 488.199 204.027 488.504 203.617C488.812 203.203 488.967 202.59 488.967 201.777Z" fill="black" fill-opacity="0.5"/>
<path d="M536.824 201.01C536.824 201.846 536.684 202.576 536.402 203.201C536.121 203.822 535.723 204.297 535.207 204.625C534.691 204.953 534.09 205.117 533.402 205.117C532.73 205.117 532.135 204.953 531.615 204.625C531.096 204.293 530.691 203.822 530.402 203.213C530.117 202.6 529.971 201.891 529.963 201.086V200.471C529.963 199.65 530.105 198.926 530.391 198.297C530.676 197.668 531.078 197.188 531.598 196.855C532.121 196.52 532.719 196.352 533.391 196.352C534.074 196.352 534.676 196.518 535.195 196.85C535.719 197.178 536.121 197.656 536.402 198.285C536.684 198.91 536.824 199.639 536.824 200.471V201.01ZM535.705 200.459C535.705 199.447 535.502 198.672 535.096 198.133C534.689 197.59 534.121 197.318 533.391 197.318C532.68 197.318 532.119 197.59 531.709 198.133C531.303 198.672 531.094 199.422 531.082 200.383V201.01C531.082 201.99 531.287 202.762 531.697 203.324C532.111 203.883 532.68 204.162 533.402 204.162C534.129 204.162 534.691 203.898 535.09 203.371C535.488 202.84 535.693 202.08 535.705 201.092V200.459ZM540.885 204.232C541.271 204.232 541.609 204.115 541.898 203.881C542.188 203.646 542.348 203.354 542.379 203.002H543.404C543.385 203.365 543.26 203.711 543.029 204.039C542.799 204.367 542.49 204.629 542.104 204.824C541.721 205.02 541.314 205.117 540.885 205.117C540.021 205.117 539.334 204.83 538.822 204.256C538.314 203.678 538.061 202.889 538.061 201.889V201.707C538.061 201.09 538.174 200.541 538.4 200.061C538.627 199.58 538.951 199.207 539.373 198.941C539.799 198.676 540.301 198.543 540.879 198.543C541.59 198.543 542.18 198.756 542.648 199.182C543.121 199.607 543.373 200.16 543.404 200.84H542.379C542.348 200.43 542.191 200.094 541.91 199.832C541.633 199.566 541.289 199.434 540.879 199.434C540.328 199.434 539.9 199.633 539.596 200.031C539.295 200.426 539.145 200.998 539.145 201.748V201.953C539.145 202.684 539.295 203.246 539.596 203.641C539.896 204.035 540.326 204.232 540.885 204.232ZM546.094 197.125V198.66H547.277V199.498H546.094V203.43C546.094 203.684 546.146 203.875 546.252 204.004C546.357 204.129 546.537 204.191 546.791 204.191C546.916 204.191 547.088 204.168 547.307 204.121V205C547.021 205.078 546.744 205.117 546.475 205.117C545.99 205.117 545.625 204.971 545.379 204.678C545.133 204.385 545.01 203.969 545.01 203.43V199.498H543.855V198.66H545.01V197.125H546.094Z" fill="black" fill-opacity="0.5"/>
<path d="M592.988 205H591.857L587.562 198.426V205H586.432V196.469H587.562L591.869 203.072V196.469H592.988V205ZM594.529 201.771C594.529 201.15 594.65 200.592 594.893 200.096C595.139 199.6 595.479 199.217 595.912 198.947C596.35 198.678 596.848 198.543 597.406 198.543C598.27 198.543 598.967 198.842 599.498 199.439C600.033 200.037 600.301 200.832 600.301 201.824V201.9C600.301 202.518 600.182 203.072 599.943 203.564C599.709 204.053 599.371 204.434 598.93 204.707C598.492 204.98 597.988 205.117 597.418 205.117C596.559 205.117 595.861 204.818 595.326 204.221C594.795 203.623 594.529 202.832 594.529 201.848V201.771ZM595.619 201.9C595.619 202.604 595.781 203.168 596.105 203.594C596.434 204.02 596.871 204.232 597.418 204.232C597.969 204.232 598.406 204.018 598.73 203.588C599.055 203.154 599.217 202.549 599.217 201.771C599.217 201.076 599.051 200.514 598.719 200.084C598.391 199.65 597.953 199.434 597.406 199.434C596.871 199.434 596.439 199.646 596.111 200.072C595.783 200.498 595.619 201.107 595.619 201.9ZM603.658 203.529L605.229 198.66H606.336L604.062 205H603.236L600.939 198.66H602.047L603.658 203.529Z" fill="black" fill-opacity="0.5"/>
<defs>
<linearGradient id="paint0_linear_0_1" x1="464" y1="84" x2="505.5" y2="179" gradientUnits="userSpaceOnUse">
<stop stop-color="#8287FD"/>
<stop offset="1" stop-color="#DD95FF"/>
</linearGradient>
</defs>
</svg>
