<svg width="1112" height="338" viewBox="0 0 1112 938" fill="none" xmlns="http://www.w3.org/2000/svg">
<rect width="1112" height="138" fill="none"/>
<path d="M60 535C60 532.791 61.7978 530.974 63.9897 531.25C69.5074 531.943 74.7741 534.066 79.2528 537.44C84.8013 541.619 88.8392 547.49 90.7567 554.167C92.6742 560.843 92.3671 567.963 89.8817 574.449C87.3964 580.936 82.8678 586.437 76.98 590.123C71.0921 593.809 64.1648 595.479 57.2442 594.881C50.3235 594.283 43.7855 591.449 38.6175 586.807C33.4495 582.166 29.9322 575.968 28.5969 569.152C27.519 563.649 27.91 557.984 29.6969 552.718C30.4067 550.626 32.8262 549.802 34.8134 550.767C36.8005 551.733 37.5932 554.122 36.9711 556.242C35.8926 559.917 35.7039 563.817 36.4476 567.614C37.4492 572.726 40.0871 577.374 43.9631 580.856C47.8391 584.337 52.7427 586.462 57.9331 586.911C63.1236 587.36 68.3191 586.107 72.735 583.343C77.1509 580.578 80.5473 576.452 82.4113 571.587C84.2753 566.722 84.5056 561.383 83.0675 556.375C81.6294 551.368 78.601 546.964 74.4396 543.83C71.3493 541.502 67.7588 539.968 63.9816 539.333C61.8031 538.966 60 537.209 60 535Z" fill="#E39F43"/>
<path d="M116.032 543.127H112.833V552H111.527V543.127H108.335V542.047H116.032V543.127ZM121.098 552C121.025 551.854 120.965 551.594 120.92 551.221C120.332 551.831 119.63 552.137 118.814 552.137C118.085 552.137 117.486 551.932 117.017 551.521C116.552 551.107 116.319 550.583 116.319 549.949C116.319 549.179 116.611 548.582 117.194 548.158C117.782 547.73 118.607 547.516 119.669 547.516H120.899V546.935C120.899 546.493 120.767 546.142 120.503 545.882C120.239 545.618 119.849 545.485 119.334 545.485C118.883 545.485 118.505 545.599 118.199 545.827C117.894 546.055 117.741 546.331 117.741 546.654H116.47C116.47 546.285 116.6 545.93 116.859 545.588C117.124 545.242 117.479 544.968 117.926 544.768C118.377 544.567 118.871 544.467 119.409 544.467C120.261 544.467 120.929 544.681 121.412 545.109C121.895 545.533 122.146 546.119 122.164 546.866V550.271C122.164 550.95 122.251 551.49 122.424 551.891V552H121.098ZM118.999 551.036C119.396 551.036 119.771 550.934 120.127 550.729C120.482 550.523 120.74 550.257 120.899 549.929V548.411H119.908C118.359 548.411 117.584 548.865 117.584 549.771C117.584 550.168 117.716 550.478 117.98 550.701C118.245 550.924 118.584 551.036 118.999 551.036ZM128.453 550.038C128.453 549.696 128.323 549.432 128.063 549.245C127.808 549.054 127.359 548.89 126.717 548.753C126.079 548.616 125.571 548.452 125.192 548.261C124.819 548.069 124.541 547.841 124.358 547.577C124.181 547.313 124.092 546.998 124.092 546.634C124.092 546.028 124.347 545.515 124.857 545.096C125.372 544.676 126.029 544.467 126.826 544.467C127.665 544.467 128.344 544.683 128.863 545.116C129.387 545.549 129.649 546.103 129.649 546.777H128.378C128.378 546.431 128.23 546.132 127.934 545.882C127.642 545.631 127.273 545.506 126.826 545.506C126.366 545.506 126.006 545.606 125.746 545.807C125.486 546.007 125.356 546.269 125.356 546.593C125.356 546.898 125.477 547.128 125.719 547.283C125.96 547.438 126.396 547.586 127.024 547.728C127.658 547.869 128.171 548.037 128.562 548.233C128.954 548.429 129.244 548.666 129.431 548.944C129.622 549.218 129.718 549.553 129.718 549.949C129.718 550.61 129.453 551.141 128.925 551.542C128.396 551.938 127.71 552.137 126.867 552.137C126.275 552.137 125.751 552.032 125.295 551.822C124.839 551.613 124.481 551.321 124.222 550.947C123.966 550.569 123.839 550.161 123.839 549.724H125.104C125.126 550.147 125.295 550.485 125.609 550.735C125.928 550.981 126.348 551.104 126.867 551.104C127.346 551.104 127.729 551.009 128.016 550.817C128.307 550.621 128.453 550.362 128.453 550.038ZM133.43 548.575L132.637 549.402V552H131.372V541.5H132.637V547.851L133.313 547.037L135.617 544.604H137.155L134.277 547.693L137.49 552H136.007L133.43 548.575ZM142.768 550.038C142.768 549.696 142.638 549.432 142.378 549.245C142.123 549.054 141.674 548.89 141.031 548.753C140.393 548.616 139.885 548.452 139.507 548.261C139.133 548.069 138.855 547.841 138.673 547.577C138.495 547.313 138.406 546.998 138.406 546.634C138.406 546.028 138.661 545.515 139.172 545.096C139.687 544.676 140.343 544.467 141.141 544.467C141.979 544.467 142.658 544.683 143.178 545.116C143.702 545.549 143.964 546.103 143.964 546.777H142.692C142.692 546.431 142.544 546.132 142.248 545.882C141.956 545.631 141.587 545.506 141.141 545.506C140.68 545.506 140.32 545.606 140.061 545.807C139.801 546.007 139.671 546.269 139.671 546.593C139.671 546.898 139.792 547.128 140.033 547.283C140.275 547.438 140.71 547.586 141.339 547.728C141.972 547.869 142.485 548.037 142.877 548.233C143.269 548.429 143.558 548.666 143.745 548.944C143.937 549.218 144.032 549.553 144.032 549.949C144.032 550.61 143.768 551.141 143.239 551.542C142.711 551.938 142.025 552.137 141.182 552.137C140.589 552.137 140.065 552.032 139.609 551.822C139.154 551.613 138.796 551.321 138.536 550.947C138.281 550.569 138.153 550.161 138.153 549.724H139.418C139.441 550.147 139.609 550.485 139.924 550.735C140.243 550.981 140.662 551.104 141.182 551.104C141.66 551.104 142.043 551.009 142.33 550.817C142.622 550.621 142.768 550.362 142.768 550.038ZM153.001 547.974H150.663V552H149.344V542.047H152.639C153.76 542.047 154.621 542.302 155.223 542.812C155.829 543.323 156.132 544.066 156.132 545.041C156.132 545.661 155.963 546.201 155.626 546.661C155.293 547.121 154.828 547.465 154.231 547.693L156.569 551.918V552H155.161L153.001 547.974ZM150.663 546.9H152.68C153.331 546.9 153.849 546.732 154.231 546.395C154.619 546.057 154.812 545.606 154.812 545.041C154.812 544.426 154.628 543.954 154.259 543.626C153.894 543.298 153.366 543.132 152.673 543.127H150.663V546.9ZM160.849 552.137C159.846 552.137 159.03 551.809 158.401 551.152C157.772 550.492 157.458 549.61 157.458 548.507V548.274C157.458 547.541 157.597 546.887 157.875 546.312C158.158 545.734 158.549 545.283 159.051 544.959C159.557 544.631 160.104 544.467 160.691 544.467C161.653 544.467 162.4 544.784 162.934 545.417C163.467 546.05 163.733 546.957 163.733 548.138V548.664H158.723C158.741 549.393 158.953 549.983 159.358 550.435C159.769 550.881 160.288 551.104 160.917 551.104C161.364 551.104 161.742 551.013 162.052 550.831C162.362 550.649 162.633 550.407 162.865 550.106L163.638 550.708C163.018 551.66 162.088 552.137 160.849 552.137ZM160.691 545.506C160.181 545.506 159.753 545.693 159.406 546.066C159.06 546.436 158.846 546.955 158.764 547.625H162.469V547.529C162.432 546.887 162.259 546.39 161.949 546.039C161.639 545.684 161.22 545.506 160.691 545.506ZM166.393 544.604L166.427 545.424C166.969 544.786 167.701 544.467 168.621 544.467C169.656 544.467 170.36 544.863 170.733 545.656C170.979 545.301 171.299 545.014 171.69 544.795C172.087 544.576 172.554 544.467 173.092 544.467C174.714 544.467 175.539 545.326 175.566 547.044V552H174.302V547.119C174.302 546.59 174.181 546.196 173.939 545.937C173.698 545.672 173.292 545.54 172.723 545.54C172.253 545.54 171.864 545.681 171.554 545.964C171.244 546.242 171.064 546.618 171.014 547.092V552H169.742V547.153C169.742 546.078 169.216 545.54 168.163 545.54C167.334 545.54 166.766 545.893 166.461 546.6V552H165.196V544.604H166.393ZM182.047 552C181.974 551.854 181.915 551.594 181.869 551.221C181.281 551.831 180.579 552.137 179.764 552.137C179.035 552.137 178.435 551.932 177.966 551.521C177.501 551.107 177.269 550.583 177.269 549.949C177.269 549.179 177.56 548.582 178.144 548.158C178.731 547.73 179.556 547.516 180.618 547.516H181.849V546.935C181.849 546.493 181.716 546.142 181.452 545.882C181.188 545.618 180.798 545.485 180.283 545.485C179.832 545.485 179.454 545.599 179.148 545.827C178.843 546.055 178.69 546.331 178.69 546.654H177.419C177.419 546.285 177.549 545.93 177.809 545.588C178.073 545.242 178.428 544.968 178.875 544.768C179.326 544.567 179.821 544.467 180.358 544.467C181.211 544.467 181.878 544.681 182.361 545.109C182.844 545.533 183.095 546.119 183.113 546.866V550.271C183.113 550.95 183.2 551.49 183.373 551.891V552H182.047ZM179.948 551.036C180.345 551.036 180.721 550.934 181.076 550.729C181.432 550.523 181.689 550.257 181.849 549.929V548.411H180.857C179.308 548.411 178.533 548.865 178.533 549.771C178.533 550.168 178.665 550.478 178.93 550.701C179.194 550.924 179.534 551.036 179.948 551.036ZM186.47 552H185.205V544.604H186.47V552ZM185.103 542.642C185.103 542.437 185.164 542.263 185.287 542.122C185.415 541.981 185.602 541.91 185.848 541.91C186.094 541.91 186.281 541.981 186.408 542.122C186.536 542.263 186.6 542.437 186.6 542.642C186.6 542.847 186.536 543.018 186.408 543.154C186.281 543.291 186.094 543.359 185.848 543.359C185.602 543.359 185.415 543.291 185.287 543.154C185.164 543.018 185.103 542.847 185.103 542.642ZM189.696 544.604L189.737 545.533C190.302 544.822 191.041 544.467 191.952 544.467C193.515 544.467 194.304 545.349 194.317 547.112V552H193.053V547.105C193.048 546.572 192.925 546.178 192.684 545.923C192.447 545.668 192.075 545.54 191.569 545.54C191.159 545.54 190.799 545.649 190.489 545.868C190.179 546.087 189.938 546.374 189.765 546.729V552H188.5V544.604H189.696ZM197.599 552H196.334V544.604H197.599V552ZM196.231 542.642C196.231 542.437 196.293 542.263 196.416 542.122C196.544 541.981 196.73 541.91 196.977 541.91C197.223 541.91 197.41 541.981 197.537 542.122C197.665 542.263 197.729 542.437 197.729 542.642C197.729 542.847 197.665 543.018 197.537 543.154C197.41 543.291 197.223 543.359 196.977 543.359C196.73 543.359 196.544 543.291 196.416 543.154C196.293 543.018 196.231 542.847 196.231 542.642ZM200.825 544.604L200.866 545.533C201.431 544.822 202.17 544.467 203.081 544.467C204.644 544.467 205.433 545.349 205.446 547.112V552H204.182V547.105C204.177 546.572 204.054 546.178 203.812 545.923C203.576 545.668 203.204 545.54 202.698 545.54C202.288 545.54 201.928 545.649 201.618 545.868C201.308 546.087 201.067 546.374 200.894 546.729V552H199.629V544.604H200.825ZM207.053 548.24C207.053 547.087 207.319 546.171 207.853 545.492C208.386 544.809 209.092 544.467 209.972 544.467C210.874 544.467 211.578 544.786 212.084 545.424L212.146 544.604H213.301V551.822C213.301 552.779 213.016 553.534 212.446 554.085C211.881 554.636 211.12 554.912 210.163 554.912C209.63 554.912 209.108 554.798 208.598 554.57C208.087 554.342 207.698 554.03 207.429 553.634L208.085 552.875C208.627 553.545 209.29 553.88 210.074 553.88C210.689 553.88 211.168 553.707 211.51 553.36C211.856 553.014 212.029 552.526 212.029 551.897V551.262C211.523 551.845 210.833 552.137 209.958 552.137C209.092 552.137 208.39 551.788 207.853 551.091C207.319 550.394 207.053 549.443 207.053 548.24ZM208.324 548.384C208.324 549.218 208.495 549.874 208.837 550.353C209.179 550.826 209.657 551.063 210.272 551.063C211.07 551.063 211.656 550.701 212.029 549.977V546.6C211.642 545.893 211.061 545.54 210.286 545.54C209.671 545.54 209.19 545.779 208.844 546.258C208.497 546.736 208.324 547.445 208.324 548.384Z" fill="black"/>
<path d="M116.604 580H113.5V568.033L109.794 569.183V566.658L116.271 564.338H116.604V580ZM132.417 580H121.696V577.873L126.756 572.48C127.451 571.721 127.963 571.059 128.292 570.493C128.629 569.927 128.797 569.39 128.797 568.882C128.797 568.187 128.621 567.643 128.271 567.249C127.92 566.848 127.418 566.647 126.767 566.647C126.065 566.647 125.51 566.891 125.102 567.378C124.701 567.858 124.5 568.492 124.5 569.279H121.385C121.385 568.327 121.61 567.457 122.062 566.669C122.52 565.881 123.164 565.265 123.995 564.821C124.826 564.37 125.768 564.145 126.82 564.145C128.432 564.145 129.681 564.531 130.569 565.305C131.465 566.078 131.912 567.17 131.912 568.581C131.912 569.354 131.712 570.142 131.311 570.944C130.91 571.746 130.222 572.681 129.248 573.748L125.692 577.497H132.417V580ZM135.436 581.343H133.126L138.884 564.359H141.193L135.436 581.343ZM150.099 580H146.994V568.033L143.288 569.183V566.658L149.766 564.338H150.099V580ZM155.652 572.309L156.555 564.359H165.32V566.948H159.101L158.714 570.311C159.451 569.917 160.236 569.72 161.066 569.72C162.556 569.72 163.723 570.182 164.568 571.105C165.413 572.029 165.836 573.322 165.836 574.983C165.836 575.993 165.621 576.899 165.191 577.701C164.769 578.496 164.16 579.116 163.365 579.56C162.57 579.996 161.632 580.215 160.551 580.215C159.605 580.215 158.728 580.025 157.919 579.646C157.11 579.259 156.469 578.718 155.996 578.023C155.531 577.329 155.284 576.537 155.255 575.649H158.327C158.392 576.301 158.617 576.81 159.004 577.175C159.398 577.533 159.91 577.712 160.54 577.712C161.242 577.712 161.783 577.461 162.162 576.96C162.542 576.451 162.731 575.735 162.731 574.812C162.731 573.924 162.513 573.243 162.076 572.771C161.639 572.298 161.02 572.062 160.218 572.062C159.48 572.062 158.882 572.255 158.424 572.642L158.123 572.921L155.652 572.309Z" fill="black" fill-opacity="0.5"/>
<path d="M54.3484 569.348L66.3484 557.348" stroke="black" stroke-opacity="0.5" stroke-width="2" stroke-linecap="round" stroke-linejoin="round"/>
<path d="M54.3484 559.348L54.3484 569.348L64.3484 569.348" stroke="black" stroke-opacity="0.5" stroke-width="2" stroke-linecap="round" stroke-linejoin="round"/>
<path d="M300 535C300 532.791 301.798 530.974 303.99 531.25C309.507 531.943 314.774 534.066 319.253 537.44C324.801 541.619 328.839 547.49 330.757 554.167C332.674 560.843 332.367 567.963 329.882 574.449C327.396 580.936 322.868 586.437 316.98 590.123C311.092 593.809 304.165 595.479 297.244 594.881C290.324 594.283 283.786 591.449 278.618 586.807C273.45 582.166 269.932 575.968 268.597 569.152C267.519 563.649 267.91 557.984 269.697 552.718C270.407 550.626 272.826 549.802 274.813 550.767C276.801 551.733 277.593 554.122 276.971 556.242C275.893 559.917 275.704 563.817 276.448 567.614C277.449 572.726 280.087 577.374 283.963 580.856C287.839 584.337 292.743 586.462 297.933 586.911C303.124 587.36 308.319 586.107 312.735 583.343C317.151 580.578 320.547 576.452 322.411 571.587C324.275 566.722 324.506 561.383 323.068 556.375C321.629 551.368 318.601 546.964 314.44 543.83C311.349 541.502 307.759 539.968 303.982 539.333C301.803 538.966 300 537.209 300 535Z" fill="#0EC23E"/>
<path d="M356.032 543.127H352.833V552H351.527V543.127H348.335V542.047H356.032V543.127ZM361.098 552C361.025 551.854 360.965 551.594 360.92 551.221C360.332 551.831 359.63 552.137 358.814 552.137C358.085 552.137 357.486 551.932 357.017 551.521C356.552 551.107 356.319 550.583 356.319 549.949C356.319 549.179 356.611 548.582 357.194 548.158C357.782 547.73 358.607 547.516 359.669 547.516H360.899V546.935C360.899 546.493 360.767 546.142 360.503 545.882C360.239 545.618 359.849 545.485 359.334 545.485C358.883 545.485 358.505 545.599 358.199 545.827C357.894 546.055 357.741 546.331 357.741 546.654H356.47C356.47 546.285 356.6 545.93 356.859 545.588C357.124 545.242 357.479 544.968 357.926 544.768C358.377 544.567 358.871 544.467 359.409 544.467C360.261 544.467 360.929 544.681 361.412 545.109C361.895 545.533 362.146 546.119 362.164 546.866V550.271C362.164 550.95 362.251 551.49 362.424 551.891V552H361.098ZM358.999 551.036C359.396 551.036 359.771 550.934 360.127 550.729C360.482 550.523 360.74 550.257 360.899 549.929V548.411H359.908C358.359 548.411 357.584 548.865 357.584 549.771C357.584 550.168 357.716 550.478 357.98 550.701C358.245 550.924 358.584 551.036 358.999 551.036ZM368.453 550.038C368.453 549.696 368.323 549.432 368.063 549.245C367.808 549.054 367.359 548.89 366.717 548.753C366.079 548.616 365.571 548.452 365.192 548.261C364.819 548.069 364.541 547.841 364.358 547.577C364.181 547.313 364.092 546.998 364.092 546.634C364.092 546.028 364.347 545.515 364.857 545.096C365.372 544.676 366.029 544.467 366.826 544.467C367.665 544.467 368.344 544.683 368.863 545.116C369.387 545.549 369.649 546.103 369.649 546.777H368.378C368.378 546.431 368.23 546.132 367.934 545.882C367.642 545.631 367.273 545.506 366.826 545.506C366.366 545.506 366.006 545.606 365.746 545.807C365.486 546.007 365.356 546.269 365.356 546.593C365.356 546.898 365.477 547.128 365.719 547.283C365.96 547.438 366.396 547.586 367.024 547.728C367.658 547.869 368.171 548.037 368.562 548.233C368.954 548.429 369.244 548.666 369.431 548.944C369.622 549.218 369.718 549.553 369.718 549.949C369.718 550.61 369.453 551.141 368.925 551.542C368.396 551.938 367.71 552.137 366.867 552.137C366.275 552.137 365.751 552.032 365.295 551.822C364.839 551.613 364.481 551.321 364.222 550.947C363.966 550.569 363.839 550.161 363.839 549.724H365.104C365.126 550.147 365.295 550.485 365.609 550.735C365.928 550.981 366.348 551.104 366.867 551.104C367.346 551.104 367.729 551.009 368.016 550.817C368.307 550.621 368.453 550.362 368.453 550.038ZM373.43 548.575L372.637 549.402V552H371.372V541.5H372.637V547.851L373.313 547.037L375.617 544.604H377.155L374.277 547.693L377.49 552H376.007L373.43 548.575ZM382.768 550.038C382.768 549.696 382.638 549.432 382.378 549.245C382.123 549.054 381.674 548.89 381.031 548.753C380.393 548.616 379.885 548.452 379.507 548.261C379.133 548.069 378.855 547.841 378.673 547.577C378.495 547.313 378.406 546.998 378.406 546.634C378.406 546.028 378.661 545.515 379.172 545.096C379.687 544.676 380.343 544.467 381.141 544.467C381.979 544.467 382.658 544.683 383.178 545.116C383.702 545.549 383.964 546.103 383.964 546.777H382.692C382.692 546.431 382.544 546.132 382.248 545.882C381.956 545.631 381.587 545.506 381.141 545.506C380.68 545.506 380.32 545.606 380.061 545.807C379.801 546.007 379.671 546.269 379.671 546.593C379.671 546.898 379.792 547.128 380.033 547.283C380.275 547.438 380.71 547.586 381.339 547.728C381.972 547.869 382.485 548.037 382.877 548.233C383.269 548.429 383.558 548.666 383.745 548.944C383.937 549.218 384.032 549.553 384.032 549.949C384.032 550.61 383.768 551.141 383.239 551.542C382.711 551.938 382.025 552.137 381.182 552.137C380.589 552.137 380.065 552.032 379.609 551.822C379.154 551.613 378.796 551.321 378.536 550.947C378.281 550.569 378.153 550.161 378.153 549.724H379.418C379.441 550.147 379.609 550.485 379.924 550.735C380.243 550.981 380.662 551.104 381.182 551.104C381.66 551.104 382.043 551.009 382.33 550.817C382.622 550.621 382.768 550.362 382.768 550.038ZM390.67 550.927H395.387V552H389.351V542.047H390.67V550.927ZM399.755 552.137C398.752 552.137 397.937 551.809 397.308 551.152C396.679 550.492 396.364 549.61 396.364 548.507V548.274C396.364 547.541 396.503 546.887 396.781 546.312C397.064 545.734 397.456 545.283 397.957 544.959C398.463 544.631 399.01 544.467 399.598 544.467C400.559 544.467 401.307 544.784 401.84 545.417C402.373 546.05 402.64 546.957 402.64 548.138V548.664H397.629C397.647 549.393 397.859 549.983 398.265 550.435C398.675 550.881 399.194 551.104 399.823 551.104C400.27 551.104 400.648 551.013 400.958 550.831C401.268 550.649 401.539 550.407 401.771 550.106L402.544 550.708C401.924 551.66 400.994 552.137 399.755 552.137ZM399.598 545.506C399.087 545.506 398.659 545.693 398.312 546.066C397.966 546.436 397.752 546.955 397.67 547.625H401.375V547.529C401.339 546.887 401.165 546.39 400.855 546.039C400.546 545.684 400.126 545.506 399.598 545.506ZM404.731 552V545.581H403.562V544.604H404.731V543.845C404.731 543.052 404.943 542.439 405.367 542.006C405.791 541.573 406.39 541.356 407.165 541.356C407.457 541.356 407.746 541.395 408.033 541.473L407.965 542.498C407.751 542.457 407.523 542.437 407.281 542.437C406.871 542.437 406.554 542.557 406.331 542.799C406.108 543.036 405.996 543.378 405.996 543.824V544.604H407.575V545.581H405.996V552H404.731ZM410.692 542.812V544.604H412.073V545.581H410.692V550.168C410.692 550.464 410.754 550.688 410.877 550.838C411 550.984 411.21 551.057 411.506 551.057C411.652 551.057 411.852 551.029 412.107 550.975V552C411.775 552.091 411.451 552.137 411.137 552.137C410.572 552.137 410.146 551.966 409.858 551.624C409.571 551.282 409.428 550.797 409.428 550.168V545.581H408.081V544.604H409.428V542.812H410.692Z" fill="black"/>
<path d="M356.604 580H353.5V568.033L349.794 569.183V566.658L356.271 564.338H356.604V580ZM372.417 580H361.696V577.873L366.756 572.48C367.451 571.721 367.963 571.059 368.292 570.493C368.629 569.927 368.797 569.39 368.797 568.882C368.797 568.187 368.621 567.643 368.271 567.249C367.92 566.848 367.418 566.647 366.767 566.647C366.065 566.647 365.51 566.891 365.102 567.378C364.701 567.858 364.5 568.492 364.5 569.279H361.385C361.385 568.327 361.61 567.457 362.062 566.669C362.52 565.881 363.164 565.265 363.995 564.821C364.826 564.37 365.768 564.145 366.82 564.145C368.432 564.145 369.681 564.531 370.569 565.305C371.465 566.078 371.912 567.17 371.912 568.581C371.912 569.354 371.712 570.142 371.311 570.944C370.91 571.746 370.222 572.681 369.248 573.748L365.692 577.497H372.417V580ZM375.436 581.343H373.126L378.884 564.359H381.193L375.436 581.343ZM390.099 580H386.994V568.033L383.288 569.183V566.658L389.766 564.338H390.099V580ZM395.652 572.309L396.555 564.359H405.32V566.948H399.101L398.714 570.311C399.451 569.917 400.236 569.72 401.066 569.72C402.556 569.72 403.723 570.182 404.568 571.105C405.413 572.029 405.836 573.322 405.836 574.983C405.836 575.993 405.621 576.899 405.191 577.701C404.769 578.496 404.16 579.116 403.365 579.56C402.57 579.996 401.632 580.215 400.551 580.215C399.605 580.215 398.728 580.025 397.919 579.646C397.11 579.259 396.469 578.718 395.996 578.023C395.531 577.329 395.284 576.537 395.255 575.649H398.327C398.392 576.301 398.617 576.81 399.004 577.175C399.398 577.533 399.91 577.712 400.54 577.712C401.242 577.712 401.783 577.461 402.162 576.96C402.542 576.451 402.731 575.735 402.731 574.812C402.731 573.924 402.513 573.243 402.076 572.771C401.639 572.298 401.02 572.062 400.218 572.062C399.48 572.062 398.882 572.255 398.424 572.642L398.123 572.921L395.652 572.309Z" fill="black" fill-opacity="0.5"/>
<path d="M306 557.349L294 569.349" stroke="black" stroke-opacity="0.5" stroke-width="2" stroke-linecap="round" stroke-linejoin="round"/>
<path d="M306 567.349L306 557.349L296 557.349" stroke="black" stroke-opacity="0.5" stroke-width="2" stroke-linecap="round" stroke-linejoin="round"/>
<path d="M499 535C499 532.791 500.798 530.974 502.99 531.25C508.507 531.943 513.774 534.066 518.253 537.44C523.801 541.619 527.839 547.49 529.757 554.167C531.674 560.843 531.367 567.963 528.882 574.449C526.396 580.936 521.868 586.437 515.98 590.123C510.092 593.809 503.165 595.479 496.244 594.881C489.324 594.283 482.786 591.449 477.618 586.807C472.45 582.166 468.932 575.968 467.597 569.152C466.519 563.649 466.91 557.984 468.697 552.718C469.407 550.626 471.826 549.802 473.813 550.767C475.801 551.733 476.593 554.122 475.971 556.242C474.893 559.917 474.704 563.817 475.448 567.614C476.449 572.726 479.087 577.374 482.963 580.856C486.839 584.337 491.743 586.462 496.933 586.911C502.124 587.36 507.319 586.107 511.735 583.343C516.151 580.578 519.547 576.452 521.411 571.587C523.275 566.722 523.506 561.383 522.068 556.375C520.629 551.368 517.601 546.964 513.44 543.83C510.349 541.502 506.759 539.968 502.982 539.333C500.803 538.966 499 537.209 499 535Z" fill="#FF8B85"/>
<path d="M555.032 543.127H551.833V552H550.527V543.127H547.335V542.047H555.032V543.127ZM560.098 552C560.025 551.854 559.965 551.594 559.92 551.221C559.332 551.831 558.63 552.137 557.814 552.137C557.085 552.137 556.486 551.932 556.017 551.521C555.552 551.107 555.319 550.583 555.319 549.949C555.319 549.179 555.611 548.582 556.194 548.158C556.782 547.73 557.607 547.516 558.669 547.516H559.899V546.935C559.899 546.493 559.767 546.142 559.503 545.882C559.239 545.618 558.849 545.485 558.334 545.485C557.883 545.485 557.505 545.599 557.199 545.827C556.894 546.055 556.741 546.331 556.741 546.654H555.47C555.47 546.285 555.6 545.93 555.859 545.588C556.124 545.242 556.479 544.968 556.926 544.768C557.377 544.567 557.871 544.467 558.409 544.467C559.261 544.467 559.929 544.681 560.412 545.109C560.895 545.533 561.146 546.119 561.164 546.866V550.271C561.164 550.95 561.251 551.49 561.424 551.891V552H560.098ZM557.999 551.036C558.396 551.036 558.771 550.934 559.127 550.729C559.482 550.523 559.74 550.257 559.899 549.929V548.411H558.908C557.359 548.411 556.584 548.865 556.584 549.771C556.584 550.168 556.716 550.478 556.98 550.701C557.245 550.924 557.584 551.036 557.999 551.036ZM567.453 550.038C567.453 549.696 567.323 549.432 567.063 549.245C566.808 549.054 566.359 548.89 565.717 548.753C565.079 548.616 564.571 548.452 564.192 548.261C563.819 548.069 563.541 547.841 563.358 547.577C563.181 547.313 563.092 546.998 563.092 546.634C563.092 546.028 563.347 545.515 563.857 545.096C564.372 544.676 565.029 544.467 565.826 544.467C566.665 544.467 567.344 544.683 567.863 545.116C568.387 545.549 568.649 546.103 568.649 546.777H567.378C567.378 546.431 567.23 546.132 566.934 545.882C566.642 545.631 566.273 545.506 565.826 545.506C565.366 545.506 565.006 545.606 564.746 545.807C564.486 546.007 564.356 546.269 564.356 546.593C564.356 546.898 564.477 547.128 564.719 547.283C564.96 547.438 565.396 547.586 566.024 547.728C566.658 547.869 567.171 548.037 567.562 548.233C567.954 548.429 568.244 548.666 568.431 548.944C568.622 549.218 568.718 549.553 568.718 549.949C568.718 550.61 568.453 551.141 567.925 551.542C567.396 551.938 566.71 552.137 565.867 552.137C565.275 552.137 564.751 552.032 564.295 551.822C563.839 551.613 563.481 551.321 563.222 550.947C562.966 550.569 562.839 550.161 562.839 549.724H564.104C564.126 550.147 564.295 550.485 564.609 550.735C564.928 550.981 565.348 551.104 565.867 551.104C566.346 551.104 566.729 551.009 567.016 550.817C567.307 550.621 567.453 550.362 567.453 550.038ZM572.43 548.575L571.637 549.402V552H570.372V541.5H571.637V547.851L572.313 547.037L574.617 544.604H576.155L573.277 547.693L576.49 552H575.007L572.43 548.575ZM581.768 550.038C581.768 549.696 581.638 549.432 581.378 549.245C581.123 549.054 580.674 548.89 580.031 548.753C579.393 548.616 578.885 548.452 578.507 548.261C578.133 548.069 577.855 547.841 577.673 547.577C577.495 547.313 577.406 546.998 577.406 546.634C577.406 546.028 577.661 545.515 578.172 545.096C578.687 544.676 579.343 544.467 580.141 544.467C580.979 544.467 581.658 544.683 582.178 545.116C582.702 545.549 582.964 546.103 582.964 546.777H581.692C581.692 546.431 581.544 546.132 581.248 545.882C580.956 545.631 580.587 545.506 580.141 545.506C579.68 545.506 579.32 545.606 579.061 545.807C578.801 546.007 578.671 546.269 578.671 546.593C578.671 546.898 578.792 547.128 579.033 547.283C579.275 547.438 579.71 547.586 580.339 547.728C580.972 547.869 581.485 548.037 581.877 548.233C582.269 548.429 582.558 548.666 582.745 548.944C582.937 549.218 583.032 549.553 583.032 549.949C583.032 550.61 582.768 551.141 582.239 551.542C581.711 551.938 581.025 552.137 580.182 552.137C579.589 552.137 579.065 552.032 578.609 551.822C578.154 551.613 577.796 551.321 577.536 550.947C577.281 550.569 577.153 550.161 577.153 549.724H578.418C578.441 550.147 578.609 550.485 578.924 550.735C579.243 550.981 579.662 551.104 580.182 551.104C580.66 551.104 581.043 551.009 581.33 550.817C581.622 550.621 581.768 550.362 581.768 550.038ZM588.351 552V542.047H591.16C592.026 542.047 592.792 542.238 593.457 542.621C594.122 543.004 594.635 543.549 594.995 544.255C595.36 544.961 595.544 545.772 595.549 546.688V547.324C595.549 548.263 595.367 549.086 595.002 549.792C594.642 550.498 594.125 551.041 593.45 551.419C592.78 551.797 591.999 551.991 591.105 552H588.351ZM589.663 543.127V550.927H591.044C592.056 550.927 592.842 550.612 593.402 549.983C593.967 549.354 594.25 548.459 594.25 547.297V546.716C594.25 545.586 593.983 544.708 593.45 544.084C592.922 543.455 592.17 543.136 591.194 543.127H589.663ZM597.005 548.233C597.005 547.509 597.146 546.857 597.429 546.278C597.716 545.7 598.112 545.253 598.618 544.938C599.129 544.624 599.71 544.467 600.361 544.467C601.368 544.467 602.182 544.815 602.802 545.513C603.426 546.21 603.738 547.137 603.738 548.295V548.384C603.738 549.104 603.599 549.751 603.321 550.325C603.048 550.895 602.654 551.339 602.139 551.658C601.628 551.977 601.04 552.137 600.375 552.137C599.372 552.137 598.559 551.788 597.935 551.091C597.315 550.394 597.005 549.471 597.005 548.322V548.233ZM598.276 548.384C598.276 549.204 598.465 549.863 598.844 550.359C599.227 550.856 599.737 551.104 600.375 551.104C601.018 551.104 601.528 550.854 601.906 550.353C602.285 549.847 602.474 549.14 602.474 548.233C602.474 547.422 602.28 546.766 601.893 546.265C601.51 545.759 600.999 545.506 600.361 545.506C599.737 545.506 599.233 545.754 598.851 546.251C598.468 546.748 598.276 547.459 598.276 548.384ZM606.521 544.604L606.562 545.533C607.127 544.822 607.865 544.467 608.776 544.467C610.34 544.467 611.128 545.349 611.142 547.112V552H609.877V547.105C609.872 546.572 609.749 546.178 609.508 545.923C609.271 545.668 608.899 545.54 608.394 545.54C607.983 545.54 607.623 545.649 607.313 545.868C607.004 546.087 606.762 546.374 606.589 546.729V552H605.324V544.604H606.521ZM616.118 552.137C615.116 552.137 614.3 551.809 613.671 551.152C613.042 550.492 612.728 549.61 612.728 548.507V548.274C612.728 547.541 612.867 546.887 613.145 546.312C613.427 545.734 613.819 545.283 614.32 544.959C614.826 544.631 615.373 544.467 615.961 544.467C616.923 544.467 617.67 544.784 618.203 545.417C618.736 546.05 619.003 546.957 619.003 548.138V548.664H613.992C614.01 549.393 614.222 549.983 614.628 550.435C615.038 550.881 615.558 551.104 616.187 551.104C616.633 551.104 617.011 551.013 617.321 550.831C617.631 550.649 617.902 550.407 618.135 550.106L618.907 550.708C618.287 551.66 617.358 552.137 616.118 552.137ZM615.961 545.506C615.451 545.506 615.022 545.693 614.676 546.066C614.329 546.436 614.115 546.955 614.033 547.625H617.738V547.529C617.702 546.887 617.529 546.39 617.219 546.039C616.909 545.684 616.49 545.506 615.961 545.506Z" fill="black"/>
<path d="M555.604 580H552.5V568.033L548.794 569.183V566.658L555.271 564.338H555.604V580ZM571.417 580H560.696V577.873L565.756 572.48C566.451 571.721 566.963 571.059 567.292 570.493C567.629 569.927 567.797 569.39 567.797 568.882C567.797 568.187 567.621 567.643 567.271 567.249C566.92 566.848 566.418 566.647 565.767 566.647C565.065 566.647 564.51 566.891 564.102 567.378C563.701 567.858 563.5 568.492 563.5 569.279H560.385C560.385 568.327 560.61 567.457 561.062 566.669C561.52 565.881 562.164 565.265 562.995 564.821C563.826 564.37 564.768 564.145 565.82 564.145C567.432 564.145 568.681 564.531 569.569 565.305C570.465 566.078 570.912 567.17 570.912 568.581C570.912 569.354 570.712 570.142 570.311 570.944C569.91 571.746 569.222 572.681 568.248 573.748L564.692 577.497H571.417V580ZM574.436 581.343H572.126L577.884 564.359H580.193L574.436 581.343ZM589.099 580H585.994V568.033L582.288 569.183V566.658L588.766 564.338H589.099V580ZM594.652 572.309L595.555 564.359H604.32V566.948H598.101L597.714 570.311C598.451 569.917 599.236 569.72 600.066 569.72C601.556 569.72 602.723 570.182 603.568 571.105C604.413 572.029 604.836 573.322 604.836 574.983C604.836 575.993 604.621 576.899 604.191 577.701C603.769 578.496 603.16 579.116 602.365 579.56C601.57 579.996 600.632 580.215 599.551 580.215C598.605 580.215 597.728 580.025 596.919 579.646C596.11 579.259 595.469 578.718 594.996 578.023C594.531 577.329 594.284 576.537 594.255 575.649H597.327C597.392 576.301 597.617 576.81 598.004 577.175C598.398 577.533 598.91 577.712 599.54 577.712C600.242 577.712 600.783 577.461 601.162 576.96C601.542 576.451 601.731 575.735 601.731 574.812C601.731 573.924 601.513 573.243 601.076 572.771C600.639 572.298 600.02 572.062 599.218 572.062C598.48 572.062 597.882 572.255 597.424 572.642L597.123 572.921L594.652 572.309Z" fill="black" fill-opacity="0.5"/>
<path d="M493.349 569.348L505.349 557.348" stroke="black" stroke-opacity="0.5" stroke-width="2" stroke-linecap="round" stroke-linejoin="round"/>
<path d="M493.349 559.348L493.349 569.348L503.349 569.348" stroke="black" stroke-opacity="0.5" stroke-width="2" stroke-linecap="round" stroke-linejoin="round"/>
</svg>
